<?xml version="1.0" encoding="UTF-8"?>
<svg width="112px" height="19px" viewBox="0 0 112 19" version="1.1" xmlns="http://www.w3.org/2000/svg" xmlns:xlink="http://www.w3.org/1999/xlink">
    <!-- Generator: Sketch 49.2 (51160) - http://www.bohemiancoding.com/sketch -->
    <title>Mayven</title>
    <desc>Created with Sketch.</desc>
    <defs></defs>
    <g id="Mayven-2.0" stroke="none" stroke-width="1" fill="none" fill-rule="evenodd" opacity="0.5">
        <g id="Blog" transform="translate(-210.000000, -3041.000000)" fill="#1F3947">
            <g id="Footer" transform="translate(210.000000, 2996.000000)">
                <g id="Mayven" transform="translate(0.000000, 45.000000)">
                    <path d="M4.9765625,0 L9.72460938,13.40625 L14.4472656,0 L19.4492188,0 L19.4492188,18.484375 L15.6279297,18.484375 L15.6279297,13.4316406 L16.0087891,4.70996094 L11.0195313,18.484375 L8.40429688,18.484375 L3.42773438,4.72265625 L3.80859375,13.4316406 L3.80859375,18.484375 L0,18.484375 L0,0 L4.9765625,0 Z M35.4394531,14.6757812 L28.7617188,14.6757812 L27.4921875,18.484375 L23.4423828,18.484375 L30.3232422,0 L33.8525391,0 L40.7714844,18.484375 L36.7216797,18.484375 L35.4394531,14.6757812 Z M29.7900391,11.5908203 L34.4111328,11.5908203 L32.0878906,4.671875 L29.7900391,11.5908203 Z M48.9667969,8.328125 L52.8134766,0 L56.9775391,0 L50.9091797,11.78125 L50.9091797,18.484375 L47.0371094,18.484375 L47.0371094,11.78125 L40.96875,0 L45.1455078,0 L48.9667969,8.328125 Z M67.7246094,13.9013672 L71.9140625,0 L76.1542969,0 L69.7177734,18.484375 L65.7441406,18.484375 L59.3330078,0 L63.5605469,0 L67.7246094,13.9013672 Z M91.0146484,10.4736328 L83.7021484,10.4736328 L83.7021484,15.4248047 L92.2841797,15.4248047 L92.2841797,18.484375 L79.8935547,18.484375 L79.8935547,0 L92.2587891,0 L92.2587891,3.08496094 L83.7021484,3.08496094 L83.7021484,7.49023438 L91.0146484,7.49023438 L91.0146484,10.4736328 Z M111.549805,18.484375 L107.741211,18.484375 L100.327148,6.32226562 L100.327148,18.484375 L96.5185547,18.484375 L96.5185547,0 L100.327148,0 L107.753906,12.1875 L107.753906,0 L111.549805,0 L111.549805,18.484375 Z" id="MAYVEN"></path>
                </g>
            </g>
        </g>
    </g>
</svg>