<?xml version="1.0" encoding="UTF-8"?>
<svg width="117px" height="251px" viewBox="0 0 117 251" version="1.1" xmlns="http://www.w3.org/2000/svg" xmlns:xlink="http://www.w3.org/1999/xlink">
    <!-- Generator: Sketch 49.3 (51167) - http://www.bohemiancoding.com/sketch -->
    <title>Illustration</title>
    <desc>Created with Sketch.</desc>
    <defs></defs>
    <g id="Mayven-2.0" stroke="none" stroke-width="1" fill="none" fill-rule="evenodd">
        <g id="The-Teams-We-Help" transform="translate(-662.000000, -9538.000000)">
            <g id="13" transform="translate(0.000000, 9168.000000)">
                <g id="Content" transform="translate(196.000000, 200.000000)">
                    <g id="Illustration" transform="translate(467.000000, 170.000000)">
                        <rect id="Rectangle-72" stroke="#FFFFFF" stroke-width="2" x="0" y="135" width="115" height="115"></rect>
                        <g id="Move" transform="translate(14.000000, 0.000000)" stroke="#FFFFFF" stroke-width="2">
                            <path d="M1.14473684,106.040507 L1.14473684,43.7204301" id="Path-31"></path>
                            <path d="M85.8552632,85.3308297 L85.8552632,47.172043" id="Path-31" opacity="0.200000003"></path>
                            <path d="M29.7631579,71.5243781 L29.7631579,28.7634409" id="Path-31" opacity="0.200000003"></path>
                            <path d="M58.3815789,106.040507 L58.3815789,66.7311828" id="Path-31" opacity="0.200000003"></path>
                            <path d="M58.3815789,39.3093243 L58.3815789,0" id="Path-31"></path>
                        </g>
                        <polygon id="Path-62" fill="#FFFFFF" points="23.8471559 136 41.775742 143.715606 33.0105984 149.485434 48.1523028 160.696643 34.710667 178.510219 51 205.925052 40.8763576 214.061942 51 231.557376 39.9360618 250 48.1523028 231.557376 36.4867264 214.061942 45.7915928 205.925052 29.0342429 178.510219 42.6783634 160.696643 26.2160806 149.485434 34.710667 143.715606 13 136"></polygon>
                        <polygon id="Path-63" fill="#FFFFFF" points="114 166 89.7705231 186.413462 97.1489709 192.849752 81.0663298 198.087926 81.0663298 208.744582 70.9937067 213.62467 75.910418 218.817347 61.5381026 229.195959 63.8836199 236.188336 41 249 67.9559449 237.734428 65.2952289 230.133724 81.0663298 220.302774 77.6186307 214.84722 84.8395154 210.779356 85.7177109 200.836346 105.464853 194.668831 97.1489709 186.413462 114 174.15342"></polygon>
                    </g>
                </g>
            </g>
        </g>
    </g>
</svg>