<?xml version="1.0" encoding="UTF-8"?>
<svg width="524px" height="264px" viewBox="0 0 524 264" version="1.1" xmlns="http://www.w3.org/2000/svg" xmlns:xlink="http://www.w3.org/1999/xlink">
    <!-- Generator: Sketch 49.3 (51167) - http://www.bohemiancoding.com/sketch -->
    <title>Illustration</title>
    <desc>Created with Sketch.</desc>
    <defs></defs>
    <g id="Mayven-2.0" stroke="none" stroke-width="1" fill="none" fill-rule="evenodd">
        <g id="The-Teams-We-Help" transform="translate(-458.000000, -3430.000000)" stroke="#FFFFFF" stroke-width="2">
            <g id="5" transform="translate(0.000000, 3056.000000)">
                <g id="Content" transform="translate(283.000000, 179.000000)">
                    <g id="Illustration" transform="translate(176.000000, 196.000000)">
                        <g id="Dots">
                            <g id="Row" opacity="0.200000003" transform="translate(0.000000, 180.000000)">
                                <g id="Dot" transform="translate(500.000000, 0.000000)">
                                    <circle id="Oval-7" fill="#1F3947" cx="11" cy="11" r="11"></circle>
                                    <circle id="Oval-7" fill="#FFFFFF" cx="11" cy="11" r="4"></circle>
                                </g>
                                <g id="Dot" transform="translate(400.000000, 0.000000)">
                                    <circle id="Oval-7" fill="#1F3947" cx="11" cy="11" r="11"></circle>
                                    <circle id="Oval-7" fill="#FFFFFF" cx="11" cy="11" r="4"></circle>
                                </g>
                                <g id="Dot" transform="translate(300.000000, 0.000000)">
                                    <circle id="Oval-7" fill="#1F3947" cx="11" cy="11" r="11"></circle>
                                    <circle id="Oval-7" fill="#FFFFFF" cx="11" cy="11" r="4"></circle>
                                </g>
                                <g id="Dot" transform="translate(200.000000, 0.000000)">
                                    <circle id="Oval-7" fill="#1F3947" cx="11" cy="11" r="11"></circle>
                                    <circle id="Oval-7" fill="#FFFFFF" cx="11" cy="11" r="4"></circle>
                                </g>
                                <g id="Dot" transform="translate(100.000000, 0.000000)">
                                    <circle id="Oval-7" fill="#1F3947" cx="11" cy="11" r="11"></circle>
                                    <circle id="Oval-7" fill="#FFFFFF" cx="11" cy="11" r="4"></circle>
                                </g>
                                <g id="Dot">
                                    <circle id="Oval-7" fill="#1F3947" cx="11" cy="11" r="11"></circle>
                                    <circle id="Oval-7" fill="#FFFFFF" cx="11" cy="11" r="4"></circle>
                                </g>
                            </g>
                            <g id="Row" opacity="0.200000003" transform="translate(0.000000, 240.000000)">
                                <g id="Dot" transform="translate(500.000000, 0.000000)">
                                    <circle id="Oval-7" fill="#1F3947" cx="11" cy="11" r="11"></circle>
                                    <circle id="Oval-7" fill="#FFFFFF" cx="11" cy="11" r="4"></circle>
                                </g>
                                <g id="Dot" transform="translate(400.000000, 0.000000)">
                                    <circle id="Oval-7" fill="#1F3947" cx="11" cy="11" r="11"></circle>
                                    <circle id="Oval-7" fill="#FFFFFF" cx="11" cy="11" r="4"></circle>
                                </g>
                                <g id="Dot" transform="translate(300.000000, 0.000000)">
                                    <circle id="Oval-7" fill="#1F3947" cx="11" cy="11" r="11"></circle>
                                    <circle id="Oval-7" fill="#FFFFFF" cx="11" cy="11" r="4"></circle>
                                </g>
                                <g id="Dot" transform="translate(200.000000, 0.000000)">
                                    <circle id="Oval-7" fill="#1F3947" cx="11" cy="11" r="11"></circle>
                                    <circle id="Oval-7" fill="#FFFFFF" cx="11" cy="11" r="4"></circle>
                                </g>
                                <g id="Dot" transform="translate(100.000000, 0.000000)">
                                    <circle id="Oval-7" fill="#1F3947" cx="11" cy="11" r="11"></circle>
                                    <circle id="Oval-7" fill="#FFFFFF" cx="11" cy="11" r="4"></circle>
                                </g>
                                <g id="Dot">
                                    <circle id="Oval-7" fill="#1F3947" cx="11" cy="11" r="11"></circle>
                                    <circle id="Oval-7" fill="#FFFFFF" cx="11" cy="11" r="4"></circle>
                                </g>
                            </g>
                            <g id="Row" transform="translate(0.000000, 120.000000)">
                                <g id="Dot" opacity="0.200000003" transform="translate(500.000000, 0.000000)">
                                    <circle id="Oval-7" fill="#1F3947" cx="11" cy="11" r="11"></circle>
                                    <circle id="Oval-7" fill="#FFFFFF" cx="11" cy="11" r="4"></circle>
                                </g>
                                <g id="Dot" opacity="0.200000003" transform="translate(400.000000, 0.000000)">
                                    <circle id="Oval-7" fill="#1F3947" cx="11" cy="11" r="11"></circle>
                                    <circle id="Oval-7" fill="#FFFFFF" cx="11" cy="11" r="4"></circle>
                                </g>
                                <g id="Dot" opacity="0.200000003" transform="translate(300.000000, 0.000000)">
                                    <circle id="Oval-7" fill="#1F3947" cx="11" cy="11" r="11"></circle>
                                    <circle id="Oval-7" fill="#FFFFFF" cx="11" cy="11" r="4"></circle>
                                </g>
                                <g id="Dot" opacity="0.200000003" transform="translate(200.000000, 0.000000)">
                                    <circle id="Oval-7" fill="#1F3947" cx="11" cy="11" r="11"></circle>
                                    <circle id="Oval-7" fill="#FFFFFF" cx="11" cy="11" r="4"></circle>
                                </g>
                                <g id="Dot" transform="translate(100.000000, 0.000000)">
                                    <circle id="Oval-7" fill="#1F3947" cx="11" cy="11" r="11"></circle>
                                    <circle id="Oval-7" fill="#FFFFFF" cx="11" cy="11" r="4"></circle>
                                </g>
                                <g id="Dot">
                                    <circle id="Oval-7" fill="#1F3947" cx="11" cy="11" r="11"></circle>
                                    <circle id="Oval-7" fill="#FFFFFF" cx="11" cy="11" r="4"></circle>
                                </g>
                            </g>
                            <g id="Row" transform="translate(0.000000, 60.000000)">
                                <g id="Dot" transform="translate(500.000000, 0.000000)">
                                    <circle id="Oval-7" fill="#1F3947" cx="11" cy="11" r="11"></circle>
                                    <circle id="Oval-7" fill="#FFFFFF" cx="11" cy="11" r="4"></circle>
                                </g>
                                <g id="Dot" transform="translate(400.000000, 0.000000)">
                                    <circle id="Oval-7" fill="#1F3947" cx="11" cy="11" r="11"></circle>
                                    <circle id="Oval-7" fill="#FFFFFF" cx="11" cy="11" r="4"></circle>
                                </g>
                                <g id="Dot" transform="translate(300.000000, 0.000000)">
                                    <circle id="Oval-7" fill="#1F3947" cx="11" cy="11" r="11"></circle>
                                    <circle id="Oval-7" fill="#FFFFFF" cx="11" cy="11" r="4"></circle>
                                </g>
                                <g id="Dot" transform="translate(200.000000, 0.000000)">
                                    <circle id="Oval-7" fill="#1F3947" cx="11" cy="11" r="11"></circle>
                                    <circle id="Oval-7" fill="#FFFFFF" cx="11" cy="11" r="4"></circle>
                                </g>
                                <g id="Dot" transform="translate(100.000000, 0.000000)">
                                    <circle id="Oval-7" fill="#1F3947" cx="11" cy="11" r="11"></circle>
                                    <circle id="Oval-7" fill="#FFFFFF" cx="11" cy="11" r="4"></circle>
                                </g>
                                <g id="Dot">
                                    <circle id="Oval-7" fill="#1F3947" cx="11" cy="11" r="11"></circle>
                                    <circle id="Oval-7" fill="#FFFFFF" cx="11" cy="11" r="4"></circle>
                                </g>
                            </g>
                            <g id="Row">
                                <g id="Dot" transform="translate(500.000000, 0.000000)">
                                    <circle id="Oval-7" fill="#1F3947" cx="11" cy="11" r="11"></circle>
                                    <circle id="Oval-7" fill="#FFFFFF" cx="11" cy="11" r="4"></circle>
                                </g>
                                <g id="Dot" transform="translate(400.000000, 0.000000)">
                                    <circle id="Oval-7" fill="#1F3947" cx="11" cy="11" r="11"></circle>
                                    <circle id="Oval-7" fill="#FFFFFF" cx="11" cy="11" r="4"></circle>
                                </g>
                                <g id="Dot" transform="translate(300.000000, 0.000000)">
                                    <circle id="Oval-7" fill="#1F3947" cx="11" cy="11" r="11"></circle>
                                    <circle id="Oval-7" fill="#FFFFFF" cx="11" cy="11" r="4"></circle>
                                </g>
                                <g id="Dot" transform="translate(200.000000, 0.000000)">
                                    <circle id="Oval-7" fill="#1F3947" cx="11" cy="11" r="11"></circle>
                                    <circle id="Oval-7" fill="#FFFFFF" cx="11" cy="11" r="4"></circle>
                                </g>
                                <g id="Dot" transform="translate(100.000000, 0.000000)">
                                    <circle id="Oval-7" fill="#1F3947" cx="11" cy="11" r="11"></circle>
                                    <circle id="Oval-7" fill="#FFFFFF" cx="11" cy="11" r="4"></circle>
                                </g>
                                <g id="Dot">
                                    <circle id="Oval-7" fill="#1F3947" cx="11" cy="11" r="11"></circle>
                                    <circle id="Oval-7" fill="#FFFFFF" cx="11" cy="11" r="4"></circle>
                                </g>
                            </g>
                        </g>
                        <g id="Lines" transform="translate(10.000000, 10.000000)">
                            <path d="M101,12.2784959 L101,50.1000977" id="Path-18"></path>
                            <path d="M101,72.2784959 L101,110.100098" id="Path-18"></path>
                            <path d="M1,12.2784959 L1,50.1000977" id="Path-18"></path>
                            <path d="M1,72.2784959 L1,110.100098" id="Path-18"></path>
                            <path d="M201,12 L201,49.8216017" id="Path-18"></path>
                            <path d="M13,1 L89.4240375,1" id="Path-12"></path>
                            <path d="M113,1 L189.424038,1" id="Path-12"></path>
                            <path d="M213,1 L289.424038,1" id="Path-12"></path>
                            <path d="M313,1 L389.424038,1" id="Path-12"></path>
                            <path d="M413,1 L489.424038,1" id="Path-12"></path>
                            <path d="M13,61 L89.4240375,61" id="Path-12"></path>
                            <path d="M13,121 L89.4240375,121" id="Path-12"></path>
                            <path d="M113,121 L159.419983,121" id="Path-12"></path>
                            <path d="M143,121 L189.419983,121" id="Path-12" opacity="0.200000003"></path>
                            <path d="M113,61 L189.424038,61" id="Path-12"></path>
                            <path d="M213,61 L289.424038,61" id="Path-12"></path>
                            <path d="M313,61 L389.424038,61" id="Path-12"></path>
                            <path d="M413,61 L489.424038,61" id="Path-12"></path>
                            <path d="M213,121 L289.424038,121" id="Path-12" opacity="0.200000003"></path>
                            <path d="M313,121 L389.424038,121" id="Path-12" opacity="0.200000003"></path>
                            <path d="M413,121 L489.424038,121" id="Path-12" opacity="0.200000003"></path>
                            <path d="M301,12 L301,49.8216017" id="Path-18"></path>
                            <path d="M401,12 L401,49.8216017" id="Path-18"></path>
                            <path d="M501,12 L501,49.8216017" id="Path-18"></path>
                            <path d="M101,133.278496 L101,169.100098" id="Path-18" opacity="0.200000003"></path>
                            <path d="M1,133.278496 L1,169.100098" id="Path-18" opacity="0.200000003"></path>
                            <path d="M201,133 L201,168.819824" id="Path-18" opacity="0.200000003"></path>
                            <path d="M13,181 L89.4240375,181" id="Path-12" opacity="0.200000003"></path>
                            <path d="M113,181 L189.424038,181" id="Path-12" opacity="0.200000003"></path>
                            <path d="M213,181 L289.424038,181" id="Path-12" opacity="0.200000003"></path>
                            <path d="M313,181 L389.424038,181" id="Path-12" opacity="0.200000003"></path>
                            <path d="M413,181 L489.424038,181" id="Path-12" opacity="0.200000003"></path>
                            <path d="M301,133 L301,168.819824" id="Path-18" opacity="0.200000003"></path>
                            <path d="M401,133 L401,168.819824" id="Path-18" opacity="0.200000003"></path>
                            <path d="M501,133 L501,168.819824" id="Path-18" opacity="0.200000003"></path>
                            <path d="M101,193.278496 L101,229.100098" id="Path-18" opacity="0.200000003"></path>
                            <path d="M1,193.278496 L1,229.100098" id="Path-18" opacity="0.200000003"></path>
                            <path d="M201,193 L201,228.819824" id="Path-18" opacity="0.200000003"></path>
                            <path d="M13,241 L89.4240375,241" id="Path-12" opacity="0.200000003"></path>
                            <path d="M113,241 L189.424038,241" id="Path-12" opacity="0.200000003"></path>
                            <path d="M213,241 L289.424038,241" id="Path-12" opacity="0.200000003"></path>
                            <path d="M313,241 L389.424038,241" id="Path-12" opacity="0.200000003"></path>
                            <path d="M413,241 L489.424038,241" id="Path-12" opacity="0.200000003"></path>
                            <path d="M301,193 L301,228.819824" id="Path-18" opacity="0.200000003"></path>
                            <path d="M401,193 L401,228.819824" id="Path-18" opacity="0.200000003"></path>
                            <path d="M501,193 L501,228.819824" id="Path-18" opacity="0.200000003"></path>
                            <path d="M201,73 L201,108.819824" id="Path-18" opacity="0.200000003"></path>
                            <path d="M301,73 L301,108.819824" id="Path-18" opacity="0.200000003"></path>
                            <path d="M401,73 L401,108.819824" id="Path-18" opacity="0.200000003"></path>
                            <path d="M501,73 L501,108.819824" id="Path-18" opacity="0.200000003"></path>
                        </g>
                    </g>
                </g>
            </g>
        </g>
    </g>
</svg>