<?xml version="1.0" encoding="UTF-8"?>
<svg width="691px" height="223px" viewBox="0 0 691 223" version="1.1" xmlns="http://www.w3.org/2000/svg" xmlns:xlink="http://www.w3.org/1999/xlink">
    <!-- Generator: Sketch 49.3 (51167) - http://www.bohemiancoding.com/sketch -->
    <title>Illustration</title>
    <desc>Created with Sketch.</desc>
    <defs></defs>
    <g id="Mayven-2.0" stroke="none" stroke-width="1" fill="none" fill-rule="evenodd">
        <g id="The-Teams-We-Help" transform="translate(-375.000000, -4216.000000)" stroke="#FFFFFF" stroke-width="2">
            <g id="6" transform="translate(0.000000, 3820.000000)">
                <g id="Content" transform="translate(336.000000, 209.000000)">
                    <g id="Illustration" transform="translate(39.000000, 188.000000)">
                        <g id="Row" transform="translate(0.000000, 160.000000)">
                            <g id="Person">
                                <ellipse id="Oval-10" cx="15.5" cy="7" rx="7.5" ry="7"></ellipse>
                                <path d="M25.3865238,19.0136277 L21.1644256,61 L23.5839684,61 L23.5839684,44.223603 L27.4879531,43.4609825 L29.9438465,22.9469896 L25.3865238,19.0136277 Z" id="Path-15"></path>
                                <path d="M5.32770024,19.0136277 L1.10560209,61 L3.52514486,61 L3.52514486,44.223603 L7.42912953,43.4609825 L9.885023,22.9469896 L5.32770024,19.0136277 Z" id="Path-15" transform="translate(5.470588, 39.500000) scale(-1, 1) translate(-5.470588, -39.500000) "></path>
                            </g>
                            <g id="Person" opacity="0.200000003" transform="translate(60.000000, 0.000000)">
                                <ellipse id="Oval-10" cx="15.5" cy="7" rx="7.5" ry="7"></ellipse>
                                <path d="M25.3865238,19.0136277 L21.1644256,61 L23.5839684,61 L23.5839684,44.223603 L27.4879531,43.4609825 L29.9438465,22.9469896 L25.3865238,19.0136277 Z" id="Path-15"></path>
                                <path d="M5.32770024,19.0136277 L1.10560209,61 L3.52514486,61 L3.52514486,44.223603 L7.42912953,43.4609825 L9.885023,22.9469896 L5.32770024,19.0136277 Z" id="Path-15" transform="translate(5.470588, 39.500000) scale(-1, 1) translate(-5.470588, -39.500000) "></path>
                            </g>
                            <g id="Person" opacity="0.200000003" transform="translate(120.000000, 0.000000)">
                                <ellipse id="Oval-10" cx="15.5" cy="7" rx="7.5" ry="7"></ellipse>
                                <path d="M25.3865238,19.0136277 L21.1644256,61 L23.5839684,61 L23.5839684,44.223603 L27.4879531,43.4609825 L29.9438465,22.9469896 L25.3865238,19.0136277 Z" id="Path-15"></path>
                                <path d="M5.32770024,19.0136277 L1.10560209,61 L3.52514486,61 L3.52514486,44.223603 L7.42912953,43.4609825 L9.885023,22.9469896 L5.32770024,19.0136277 Z" id="Path-15" transform="translate(5.470588, 39.500000) scale(-1, 1) translate(-5.470588, -39.500000) "></path>
                            </g>
                            <g id="Person" opacity="0.200000003" transform="translate(180.000000, 0.000000)">
                                <ellipse id="Oval-10" cx="15.5" cy="7" rx="7.5" ry="7"></ellipse>
                                <path d="M25.3865238,19.0136277 L21.1644256,61 L23.5839684,61 L23.5839684,44.223603 L27.4879531,43.4609825 L29.9438465,22.9469896 L25.3865238,19.0136277 Z" id="Path-15"></path>
                                <path d="M5.32770024,19.0136277 L1.10560209,61 L3.52514486,61 L3.52514486,44.223603 L7.42912953,43.4609825 L9.885023,22.9469896 L5.32770024,19.0136277 Z" id="Path-15" transform="translate(5.470588, 39.500000) scale(-1, 1) translate(-5.470588, -39.500000) "></path>
                            </g>
                            <g id="Person" transform="translate(240.000000, 0.000000)">
                                <ellipse id="Oval-10" cx="15.5" cy="7" rx="7.5" ry="7"></ellipse>
                                <path d="M25.3865238,19.0136277 L21.1644256,61 L23.5839684,61 L23.5839684,44.223603 L27.4879531,43.4609825 L29.9438465,22.9469896 L25.3865238,19.0136277 Z" id="Path-15"></path>
                                <path d="M5.32770024,19.0136277 L1.10560209,61 L3.52514486,61 L3.52514486,44.223603 L7.42912953,43.4609825 L9.885023,22.9469896 L5.32770024,19.0136277 Z" id="Path-15" transform="translate(5.470588, 39.500000) scale(-1, 1) translate(-5.470588, -39.500000) "></path>
                            </g>
                            <g id="Person" transform="translate(300.000000, 0.000000)">
                                <ellipse id="Oval-10" cx="15.5" cy="7" rx="7.5" ry="7"></ellipse>
                                <path d="M25.3865238,19.0136277 L21.1644256,61 L23.5839684,61 L23.5839684,44.223603 L27.4879531,43.4609825 L29.9438465,22.9469896 L25.3865238,19.0136277 Z" id="Path-15"></path>
                                <path d="M5.32770024,19.0136277 L1.10560209,61 L3.52514486,61 L3.52514486,44.223603 L7.42912953,43.4609825 L9.885023,22.9469896 L5.32770024,19.0136277 Z" id="Path-15" transform="translate(5.470588, 39.500000) scale(-1, 1) translate(-5.470588, -39.500000) "></path>
                            </g>
                            <g id="Person" transform="translate(360.000000, 0.000000)">
                                <ellipse id="Oval-10" cx="15.5" cy="7" rx="7.5" ry="7"></ellipse>
                                <path d="M25.3865238,19.0136277 L21.1644256,61 L23.5839684,61 L23.5839684,44.223603 L27.4879531,43.4609825 L29.9438465,22.9469896 L25.3865238,19.0136277 Z" id="Path-15"></path>
                                <path d="M5.32770024,19.0136277 L1.10560209,61 L3.52514486,61 L3.52514486,44.223603 L7.42912953,43.4609825 L9.885023,22.9469896 L5.32770024,19.0136277 Z" id="Path-15" transform="translate(5.470588, 39.500000) scale(-1, 1) translate(-5.470588, -39.500000) "></path>
                            </g>
                            <g id="Person" opacity="0.200000003" transform="translate(420.000000, 0.000000)">
                                <ellipse id="Oval-10" cx="15.5" cy="7" rx="7.5" ry="7"></ellipse>
                                <path d="M25.3865238,19.0136277 L21.1644256,61 L23.5839684,61 L23.5839684,44.223603 L27.4879531,43.4609825 L29.9438465,22.9469896 L25.3865238,19.0136277 Z" id="Path-15"></path>
                                <path d="M5.32770024,19.0136277 L1.10560209,61 L3.52514486,61 L3.52514486,44.223603 L7.42912953,43.4609825 L9.885023,22.9469896 L5.32770024,19.0136277 Z" id="Path-15" transform="translate(5.470588, 39.500000) scale(-1, 1) translate(-5.470588, -39.500000) "></path>
                            </g>
                            <g id="Person" opacity="0.200000003" transform="translate(480.000000, 0.000000)">
                                <ellipse id="Oval-10" cx="15.5" cy="7" rx="7.5" ry="7"></ellipse>
                                <path d="M25.3865238,19.0136277 L21.1644256,61 L23.5839684,61 L23.5839684,44.223603 L27.4879531,43.4609825 L29.9438465,22.9469896 L25.3865238,19.0136277 Z" id="Path-15"></path>
                                <path d="M5.32770024,19.0136277 L1.10560209,61 L3.52514486,61 L3.52514486,44.223603 L7.42912953,43.4609825 L9.885023,22.9469896 L5.32770024,19.0136277 Z" id="Path-15" transform="translate(5.470588, 39.500000) scale(-1, 1) translate(-5.470588, -39.500000) "></path>
                            </g>
                            <g id="Person" transform="translate(540.000000, 0.000000)">
                                <ellipse id="Oval-10" cx="15.5" cy="7" rx="7.5" ry="7"></ellipse>
                                <path d="M25.3865238,19.0136277 L21.1644256,61 L23.5839684,61 L23.5839684,44.223603 L27.4879531,43.4609825 L29.9438465,22.9469896 L25.3865238,19.0136277 Z" id="Path-15"></path>
                                <path d="M5.32770024,19.0136277 L1.10560209,61 L3.52514486,61 L3.52514486,44.223603 L7.42912953,43.4609825 L9.885023,22.9469896 L5.32770024,19.0136277 Z" id="Path-15" transform="translate(5.470588, 39.500000) scale(-1, 1) translate(-5.470588, -39.500000) "></path>
                            </g>
                            <g id="Person" transform="translate(600.000000, 0.000000)">
                                <ellipse id="Oval-10" cx="15.5" cy="7" rx="7.5" ry="7"></ellipse>
                                <path d="M25.3865238,19.0136277 L21.1644256,61 L23.5839684,61 L23.5839684,44.223603 L27.4879531,43.4609825 L29.9438465,22.9469896 L25.3865238,19.0136277 Z" id="Path-15"></path>
                                <path d="M5.32770024,19.0136277 L1.10560209,61 L3.52514486,61 L3.52514486,44.223603 L7.42912953,43.4609825 L9.885023,22.9469896 L5.32770024,19.0136277 Z" id="Path-15" transform="translate(5.470588, 39.500000) scale(-1, 1) translate(-5.470588, -39.500000) "></path>
                            </g>
                            <g id="Person" transform="translate(660.000000, 0.000000)">
                                <ellipse id="Oval-10" cx="15.5" cy="7" rx="7.5" ry="7"></ellipse>
                                <path d="M25.3865238,19.0136277 L21.1644256,61 L23.5839684,61 L23.5839684,44.223603 L27.4879531,43.4609825 L29.9438465,22.9469896 L25.3865238,19.0136277 Z" id="Path-15"></path>
                                <path d="M5.32770024,19.0136277 L1.10560209,61 L3.52514486,61 L3.52514486,44.223603 L7.42912953,43.4609825 L9.885023,22.9469896 L5.32770024,19.0136277 Z" id="Path-15" transform="translate(5.470588, 39.500000) scale(-1, 1) translate(-5.470588, -39.500000) "></path>
                            </g>
                        </g>
                        <g id="Row" transform="translate(0.000000, 80.000000)">
                            <g id="Person">
                                <ellipse id="Oval-10" cx="15.5" cy="7" rx="7.5" ry="7"></ellipse>
                                <path d="M25.3865238,19.0136277 L21.1644256,61 L23.5839684,61 L23.5839684,44.223603 L27.4879531,43.4609825 L29.9438465,22.9469896 L25.3865238,19.0136277 Z" id="Path-15"></path>
                                <path d="M5.32770024,19.0136277 L1.10560209,61 L3.52514486,61 L3.52514486,44.223603 L7.42912953,43.4609825 L9.885023,22.9469896 L5.32770024,19.0136277 Z" id="Path-15" transform="translate(5.470588, 39.500000) scale(-1, 1) translate(-5.470588, -39.500000) "></path>
                            </g>
                            <g id="Person" transform="translate(60.000000, 0.000000)">
                                <ellipse id="Oval-10" cx="15.5" cy="7" rx="7.5" ry="7"></ellipse>
                                <path d="M25.3865238,19.0136277 L21.1644256,61 L23.5839684,61 L23.5839684,44.223603 L27.4879531,43.4609825 L29.9438465,22.9469896 L25.3865238,19.0136277 Z" id="Path-15"></path>
                                <path d="M5.32770024,19.0136277 L1.10560209,61 L3.52514486,61 L3.52514486,44.223603 L7.42912953,43.4609825 L9.885023,22.9469896 L5.32770024,19.0136277 Z" id="Path-15" transform="translate(5.470588, 39.500000) scale(-1, 1) translate(-5.470588, -39.500000) "></path>
                            </g>
                            <g id="Person" opacity="0.200000003" transform="translate(120.000000, 0.000000)">
                                <ellipse id="Oval-10" cx="15.5" cy="7" rx="7.5" ry="7"></ellipse>
                                <path d="M25.3865238,19.0136277 L21.1644256,61 L23.5839684,61 L23.5839684,44.223603 L27.4879531,43.4609825 L29.9438465,22.9469896 L25.3865238,19.0136277 Z" id="Path-15"></path>
                                <path d="M5.32770024,19.0136277 L1.10560209,61 L3.52514486,61 L3.52514486,44.223603 L7.42912953,43.4609825 L9.885023,22.9469896 L5.32770024,19.0136277 Z" id="Path-15" transform="translate(5.470588, 39.500000) scale(-1, 1) translate(-5.470588, -39.500000) "></path>
                            </g>
                            <g id="Person" transform="translate(180.000000, 0.000000)">
                                <ellipse id="Oval-10" cx="15.5" cy="7" rx="7.5" ry="7"></ellipse>
                                <path d="M25.3865238,19.0136277 L21.1644256,61 L23.5839684,61 L23.5839684,44.223603 L27.4879531,43.4609825 L29.9438465,22.9469896 L25.3865238,19.0136277 Z" id="Path-15"></path>
                                <path d="M5.32770024,19.0136277 L1.10560209,61 L3.52514486,61 L3.52514486,44.223603 L7.42912953,43.4609825 L9.885023,22.9469896 L5.32770024,19.0136277 Z" id="Path-15" transform="translate(5.470588, 39.500000) scale(-1, 1) translate(-5.470588, -39.500000) "></path>
                            </g>
                            <g id="Person" transform="translate(240.000000, 0.000000)">
                                <ellipse id="Oval-10" cx="15.5" cy="7" rx="7.5" ry="7"></ellipse>
                                <path d="M25.3865238,19.0136277 L21.1644256,61 L23.5839684,61 L23.5839684,44.223603 L27.4879531,43.4609825 L29.9438465,22.9469896 L25.3865238,19.0136277 Z" id="Path-15"></path>
                                <path d="M5.32770024,19.0136277 L1.10560209,61 L3.52514486,61 L3.52514486,44.223603 L7.42912953,43.4609825 L9.885023,22.9469896 L5.32770024,19.0136277 Z" id="Path-15" transform="translate(5.470588, 39.500000) scale(-1, 1) translate(-5.470588, -39.500000) "></path>
                            </g>
                            <g id="Person" opacity="0.200000003" transform="translate(300.000000, 0.000000)">
                                <ellipse id="Oval-10" cx="15.5" cy="7" rx="7.5" ry="7"></ellipse>
                                <path d="M25.3865238,19.0136277 L21.1644256,61 L23.5839684,61 L23.5839684,44.223603 L27.4879531,43.4609825 L29.9438465,22.9469896 L25.3865238,19.0136277 Z" id="Path-15"></path>
                                <path d="M5.32770024,19.0136277 L1.10560209,61 L3.52514486,61 L3.52514486,44.223603 L7.42912953,43.4609825 L9.885023,22.9469896 L5.32770024,19.0136277 Z" id="Path-15" transform="translate(5.470588, 39.500000) scale(-1, 1) translate(-5.470588, -39.500000) "></path>
                            </g>
                            <g id="Person" transform="translate(360.000000, 0.000000)">
                                <ellipse id="Oval-10" cx="15.5" cy="7" rx="7.5" ry="7"></ellipse>
                                <path d="M25.3865238,19.0136277 L21.1644256,61 L23.5839684,61 L23.5839684,44.223603 L27.4879531,43.4609825 L29.9438465,22.9469896 L25.3865238,19.0136277 Z" id="Path-15"></path>
                                <path d="M5.32770024,19.0136277 L1.10560209,61 L3.52514486,61 L3.52514486,44.223603 L7.42912953,43.4609825 L9.885023,22.9469896 L5.32770024,19.0136277 Z" id="Path-15" transform="translate(5.470588, 39.500000) scale(-1, 1) translate(-5.470588, -39.500000) "></path>
                            </g>
                            <g id="Person" transform="translate(420.000000, 0.000000)">
                                <ellipse id="Oval-10" cx="15.5" cy="7" rx="7.5" ry="7"></ellipse>
                                <path d="M25.3865238,19.0136277 L21.1644256,61 L23.5839684,61 L23.5839684,44.223603 L27.4879531,43.4609825 L29.9438465,22.9469896 L25.3865238,19.0136277 Z" id="Path-15"></path>
                                <path d="M5.32770024,19.0136277 L1.10560209,61 L3.52514486,61 L3.52514486,44.223603 L7.42912953,43.4609825 L9.885023,22.9469896 L5.32770024,19.0136277 Z" id="Path-15" transform="translate(5.470588, 39.500000) scale(-1, 1) translate(-5.470588, -39.500000) "></path>
                            </g>
                            <g id="Person" opacity="0.200000003" transform="translate(480.000000, 0.000000)">
                                <ellipse id="Oval-10" cx="15.5" cy="7" rx="7.5" ry="7"></ellipse>
                                <path d="M25.3865238,19.0136277 L21.1644256,61 L23.5839684,61 L23.5839684,44.223603 L27.4879531,43.4609825 L29.9438465,22.9469896 L25.3865238,19.0136277 Z" id="Path-15"></path>
                                <path d="M5.32770024,19.0136277 L1.10560209,61 L3.52514486,61 L3.52514486,44.223603 L7.42912953,43.4609825 L9.885023,22.9469896 L5.32770024,19.0136277 Z" id="Path-15" transform="translate(5.470588, 39.500000) scale(-1, 1) translate(-5.470588, -39.500000) "></path>
                            </g>
                            <g id="Person" transform="translate(540.000000, 0.000000)">
                                <ellipse id="Oval-10" cx="15.5" cy="7" rx="7.5" ry="7"></ellipse>
                                <path d="M25.3865238,19.0136277 L21.1644256,61 L23.5839684,61 L23.5839684,44.223603 L27.4879531,43.4609825 L29.9438465,22.9469896 L25.3865238,19.0136277 Z" id="Path-15"></path>
                                <path d="M5.32770024,19.0136277 L1.10560209,61 L3.52514486,61 L3.52514486,44.223603 L7.42912953,43.4609825 L9.885023,22.9469896 L5.32770024,19.0136277 Z" id="Path-15" transform="translate(5.470588, 39.500000) scale(-1, 1) translate(-5.470588, -39.500000) "></path>
                            </g>
                            <g id="Person" opacity="0.200000003" transform="translate(600.000000, 0.000000)">
                                <ellipse id="Oval-10" cx="15.5" cy="7" rx="7.5" ry="7"></ellipse>
                                <path d="M25.3865238,19.0136277 L21.1644256,61 L23.5839684,61 L23.5839684,44.223603 L27.4879531,43.4609825 L29.9438465,22.9469896 L25.3865238,19.0136277 Z" id="Path-15"></path>
                                <path d="M5.32770024,19.0136277 L1.10560209,61 L3.52514486,61 L3.52514486,44.223603 L7.42912953,43.4609825 L9.885023,22.9469896 L5.32770024,19.0136277 Z" id="Path-15" transform="translate(5.470588, 39.500000) scale(-1, 1) translate(-5.470588, -39.500000) "></path>
                            </g>
                            <g id="Person" opacity="0.200000003" transform="translate(660.000000, 0.000000)">
                                <ellipse id="Oval-10" cx="15.5" cy="7" rx="7.5" ry="7"></ellipse>
                                <path d="M25.3865238,19.0136277 L21.1644256,61 L23.5839684,61 L23.5839684,44.223603 L27.4879531,43.4609825 L29.9438465,22.9469896 L25.3865238,19.0136277 Z" id="Path-15"></path>
                                <path d="M5.32770024,19.0136277 L1.10560209,61 L3.52514486,61 L3.52514486,44.223603 L7.42912953,43.4609825 L9.885023,22.9469896 L5.32770024,19.0136277 Z" id="Path-15" transform="translate(5.470588, 39.500000) scale(-1, 1) translate(-5.470588, -39.500000) "></path>
                            </g>
                        </g>
                        <g id="Row">
                            <g id="Person">
                                <ellipse id="Oval-10" cx="15.5" cy="7" rx="7.5" ry="7"></ellipse>
                                <path d="M25.3865238,19.0136277 L21.1644256,61 L23.5839684,61 L23.5839684,44.223603 L27.4879531,43.4609825 L29.9438465,22.9469896 L25.3865238,19.0136277 Z" id="Path-15"></path>
                                <path d="M5.32770024,19.0136277 L1.10560209,61 L3.52514486,61 L3.52514486,44.223603 L7.42912953,43.4609825 L9.885023,22.9469896 L5.32770024,19.0136277 Z" id="Path-15" transform="translate(5.470588, 39.500000) scale(-1, 1) translate(-5.470588, -39.500000) "></path>
                            </g>
                            <g id="Person" opacity="0.200000003" transform="translate(60.000000, 0.000000)">
                                <ellipse id="Oval-10" cx="15.5" cy="7" rx="7.5" ry="7"></ellipse>
                                <path d="M25.3865238,19.0136277 L21.1644256,61 L23.5839684,61 L23.5839684,44.223603 L27.4879531,43.4609825 L29.9438465,22.9469896 L25.3865238,19.0136277 Z" id="Path-15"></path>
                                <path d="M5.32770024,19.0136277 L1.10560209,61 L3.52514486,61 L3.52514486,44.223603 L7.42912953,43.4609825 L9.885023,22.9469896 L5.32770024,19.0136277 Z" id="Path-15" transform="translate(5.470588, 39.500000) scale(-1, 1) translate(-5.470588, -39.500000) "></path>
                            </g>
                            <g id="Person" opacity="0.200000003" transform="translate(120.000000, 0.000000)">
                                <ellipse id="Oval-10" cx="15.5" cy="7" rx="7.5" ry="7"></ellipse>
                                <path d="M25.3865238,19.0136277 L21.1644256,61 L23.5839684,61 L23.5839684,44.223603 L27.4879531,43.4609825 L29.9438465,22.9469896 L25.3865238,19.0136277 Z" id="Path-15"></path>
                                <path d="M5.32770024,19.0136277 L1.10560209,61 L3.52514486,61 L3.52514486,44.223603 L7.42912953,43.4609825 L9.885023,22.9469896 L5.32770024,19.0136277 Z" id="Path-15" transform="translate(5.470588, 39.500000) scale(-1, 1) translate(-5.470588, -39.500000) "></path>
                            </g>
                            <g id="Person" transform="translate(180.000000, 0.000000)">
                                <ellipse id="Oval-10" cx="15.5" cy="7" rx="7.5" ry="7"></ellipse>
                                <path d="M25.3865238,19.0136277 L21.1644256,61 L23.5839684,61 L23.5839684,44.223603 L27.4879531,43.4609825 L29.9438465,22.9469896 L25.3865238,19.0136277 Z" id="Path-15"></path>
                                <path d="M5.32770024,19.0136277 L1.10560209,61 L3.52514486,61 L3.52514486,44.223603 L7.42912953,43.4609825 L9.885023,22.9469896 L5.32770024,19.0136277 Z" id="Path-15" transform="translate(5.470588, 39.500000) scale(-1, 1) translate(-5.470588, -39.500000) "></path>
                            </g>
                            <g id="Person" opacity="0.200000003" transform="translate(240.000000, 0.000000)">
                                <ellipse id="Oval-10" cx="15.5" cy="7" rx="7.5" ry="7"></ellipse>
                                <path d="M25.3865238,19.0136277 L21.1644256,61 L23.5839684,61 L23.5839684,44.223603 L27.4879531,43.4609825 L29.9438465,22.9469896 L25.3865238,19.0136277 Z" id="Path-15"></path>
                                <path d="M5.32770024,19.0136277 L1.10560209,61 L3.52514486,61 L3.52514486,44.223603 L7.42912953,43.4609825 L9.885023,22.9469896 L5.32770024,19.0136277 Z" id="Path-15" transform="translate(5.470588, 39.500000) scale(-1, 1) translate(-5.470588, -39.500000) "></path>
                            </g>
                            <g id="Person" transform="translate(300.000000, 0.000000)">
                                <ellipse id="Oval-10" cx="15.5" cy="7" rx="7.5" ry="7"></ellipse>
                                <path d="M25.3865238,19.0136277 L21.1644256,61 L23.5839684,61 L23.5839684,44.223603 L27.4879531,43.4609825 L29.9438465,22.9469896 L25.3865238,19.0136277 Z" id="Path-15"></path>
                                <path d="M5.32770024,19.0136277 L1.10560209,61 L3.52514486,61 L3.52514486,44.223603 L7.42912953,43.4609825 L9.885023,22.9469896 L5.32770024,19.0136277 Z" id="Path-15" transform="translate(5.470588, 39.500000) scale(-1, 1) translate(-5.470588, -39.500000) "></path>
                            </g>
                            <g id="Person" opacity="0.200000003" transform="translate(360.000000, 0.000000)">
                                <ellipse id="Oval-10" cx="15.5" cy="7" rx="7.5" ry="7"></ellipse>
                                <path d="M25.3865238,19.0136277 L21.1644256,61 L23.5839684,61 L23.5839684,44.223603 L27.4879531,43.4609825 L29.9438465,22.9469896 L25.3865238,19.0136277 Z" id="Path-15"></path>
                                <path d="M5.32770024,19.0136277 L1.10560209,61 L3.52514486,61 L3.52514486,44.223603 L7.42912953,43.4609825 L9.885023,22.9469896 L5.32770024,19.0136277 Z" id="Path-15" transform="translate(5.470588, 39.500000) scale(-1, 1) translate(-5.470588, -39.500000) "></path>
                            </g>
                            <g id="Person" opacity="0.200000003" transform="translate(420.000000, 0.000000)">
                                <ellipse id="Oval-10" cx="15.5" cy="7" rx="7.5" ry="7"></ellipse>
                                <path d="M25.3865238,19.0136277 L21.1644256,61 L23.5839684,61 L23.5839684,44.223603 L27.4879531,43.4609825 L29.9438465,22.9469896 L25.3865238,19.0136277 Z" id="Path-15"></path>
                                <path d="M5.32770024,19.0136277 L1.10560209,61 L3.52514486,61 L3.52514486,44.223603 L7.42912953,43.4609825 L9.885023,22.9469896 L5.32770024,19.0136277 Z" id="Path-15" transform="translate(5.470588, 39.500000) scale(-1, 1) translate(-5.470588, -39.500000) "></path>
                            </g>
                            <g id="Person" transform="translate(480.000000, 0.000000)">
                                <ellipse id="Oval-10" cx="15.5" cy="7" rx="7.5" ry="7"></ellipse>
                                <path d="M25.3865238,19.0136277 L21.1644256,61 L23.5839684,61 L23.5839684,44.223603 L27.4879531,43.4609825 L29.9438465,22.9469896 L25.3865238,19.0136277 Z" id="Path-15"></path>
                                <path d="M5.32770024,19.0136277 L1.10560209,61 L3.52514486,61 L3.52514486,44.223603 L7.42912953,43.4609825 L9.885023,22.9469896 L5.32770024,19.0136277 Z" id="Path-15" transform="translate(5.470588, 39.500000) scale(-1, 1) translate(-5.470588, -39.500000) "></path>
                            </g>
                            <g id="Person" opacity="0.200000003" transform="translate(540.000000, 0.000000)">
                                <ellipse id="Oval-10" cx="15.5" cy="7" rx="7.5" ry="7"></ellipse>
                                <path d="M25.3865238,19.0136277 L21.1644256,61 L23.5839684,61 L23.5839684,44.223603 L27.4879531,43.4609825 L29.9438465,22.9469896 L25.3865238,19.0136277 Z" id="Path-15"></path>
                                <path d="M5.32770024,19.0136277 L1.10560209,61 L3.52514486,61 L3.52514486,44.223603 L7.42912953,43.4609825 L9.885023,22.9469896 L5.32770024,19.0136277 Z" id="Path-15" transform="translate(5.470588, 39.500000) scale(-1, 1) translate(-5.470588, -39.500000) "></path>
                            </g>
                            <g id="Person" transform="translate(600.000000, 0.000000)">
                                <ellipse id="Oval-10" cx="15.5" cy="7" rx="7.5" ry="7"></ellipse>
                                <path d="M25.3865238,19.0136277 L21.1644256,61 L23.5839684,61 L23.5839684,44.223603 L27.4879531,43.4609825 L29.9438465,22.9469896 L25.3865238,19.0136277 Z" id="Path-15"></path>
                                <path d="M5.32770024,19.0136277 L1.10560209,61 L3.52514486,61 L3.52514486,44.223603 L7.42912953,43.4609825 L9.885023,22.9469896 L5.32770024,19.0136277 Z" id="Path-15" transform="translate(5.470588, 39.500000) scale(-1, 1) translate(-5.470588, -39.500000) "></path>
                            </g>
                            <g id="Person" transform="translate(660.000000, 0.000000)">
                                <ellipse id="Oval-10" cx="15.5" cy="7" rx="7.5" ry="7"></ellipse>
                                <path d="M25.3865238,19.0136277 L21.1644256,61 L23.5839684,61 L23.5839684,44.223603 L27.4879531,43.4609825 L29.9438465,22.9469896 L25.3865238,19.0136277 Z" id="Path-15"></path>
                                <path d="M5.32770024,19.0136277 L1.10560209,61 L3.52514486,61 L3.52514486,44.223603 L7.42912953,43.4609825 L9.885023,22.9469896 L5.32770024,19.0136277 Z" id="Path-15" transform="translate(5.470588, 39.500000) scale(-1, 1) translate(-5.470588, -39.500000) "></path>
                            </g>
                        </g>
                    </g>
                </g>
            </g>
        </g>
    </g>
</svg>