<?xml version="1.0" encoding="UTF-8"?>
<svg width="649px" height="245px" viewBox="0 0 649 245" version="1.1" xmlns="http://www.w3.org/2000/svg" xmlns:xlink="http://www.w3.org/1999/xlink">
    <!-- Generator: Sketch 49.3 (51167) - http://www.bohemiancoding.com/sketch -->
    <title>Illustration</title>
    <desc>Created with Sketch.</desc>
    <defs></defs>
    <g id="Mayven-2.0" stroke="none" stroke-width="1" fill="none" fill-rule="evenodd">
        <g id="The-Teams-We-Help" transform="translate(-396.000000, -10277.000000)" fill="#FFFFFF">
            <g id="14" transform="translate(0.000000, 9932.000000)">
                <g id="Content" transform="translate(348.000000, 220.000000)">
                    <g id="Illustration" transform="translate(48.000000, 125.000000)">
                        <circle id="Oval-15" cx="328" cy="40" r="10"></circle>
                        <circle id="Oval-15" cx="354" cy="96" r="6"></circle>
                        <circle id="Oval-15" cx="454" cy="96" r="6"></circle>
                        <circle id="Oval-15" opacity="0.200000003" cx="408" cy="50" r="10"></circle>
                        <circle id="Oval-15" cx="427" cy="140" r="10"></circle>
                        <circle id="Oval-15" cx="567" cy="110" r="10"></circle>
                        <circle id="Oval-15" cx="328" cy="170" r="10"></circle>
                        <circle id="Oval-15" cx="257.5" cy="83.5" r="10.5"></circle>
                        <circle id="Oval-16" cx="216" cy="134" r="30"></circle>
                        <circle id="Oval-16" cx="508" cy="100" r="30"></circle>
                        <circle id="Oval-15" opacity="0.200000003" cx="158" cy="40" r="10"></circle>
                        <circle id="Oval-15" cx="233" cy="25" r="15"></circle>
                        <circle id="Oval-15" cx="543" cy="230" r="15"></circle>
                        <circle id="Oval-15" cx="170.5" cy="138.5" r="10.5"></circle>
                        <circle id="Oval-15" cx="78" cy="80" r="10"></circle>
                        <circle id="Oval-15" cx="53" cy="5" r="5"></circle>
                        <circle id="Oval-15" cx="58" cy="160" r="10"></circle>
                        <circle id="Oval-15" opacity="0.200000003" cx="73" cy="215" r="5"></circle>
                        <circle id="Oval-15" cx="158.5" cy="220.5" r="10.5"></circle>
                        <circle id="z" opacity="0.200000003" cx="264" cy="206" r="6"></circle>
                        <circle id="Oval-15" cx="373" cy="215" r="5"></circle>
                        <circle id="Oval-15" cx="458" cy="210" r="10"></circle>
                        <circle id="Oval-15" opacity="0.200000003" cx="568" cy="170" r="10"></circle>
                        <circle id="Oval-15" cx="528" cy="10" r="10"></circle>
                        <circle id="Oval-15" opacity="0.200000003" cx="614" cy="6" r="6"></circle>
                        <circle id="Oval-15" opacity="0.200000003" cx="581" cy="56" r="6"></circle>
                        <circle id="Oval-15" opacity="0.200000003" cx="6" cy="76" r="6"></circle>
                        <circle id="Oval-15" cx="638" cy="100" r="10"></circle>
                        <circle id="Oval-15" cx="638.5" cy="200.5" r="10.5"></circle>
                        <circle id="Oval-15" cx="634" cy="196" r="6"></circle>
                        <path d="M178.281042,131.505065 C180.473498,134.252791 182.248381,135.345441 183.605689,134.783018 C184.962997,134.220594 186.006546,131.771968 186.736336,127.437139 L189.776349,148.676483 C188.229571,145.996108 186.252155,144.550875 183.844102,144.340784 C181.536615,144.139467 178.855811,145.237799 175.801692,147.63578 L178.281042,131.505065 Z" id="Path-27"></path>
                        <path d="M247.087629,84.857754 C247.931149,90.8552268 246.123295,95.8826244 241.664068,99.9399468 C234.975227,106.02593 220.456903,104.336079 220.456903,104.336079 C220.456903,104.336079 244.353701,123.887614 242.796961,120.470348 C241.240221,117.053082 239.568973,107.022304 243.761108,101.761992 C246.555865,98.2551173 251.840075,95.5952866 259.613738,93.7825001 L247.087629,84.857754 Z" id="Path-78"></path>
                        <path d="M458.561374,92.1299578 C461.026547,94.9910795 463.904177,96.5184892 467.194266,96.7121871 C470.484355,96.905885 476.127734,91.8882288 484.124403,81.6592184 L485.088132,119.295673 C477.175874,108.223831 471.118034,102.151002 466.914612,101.077186 C462.71119,100.00337 459.186036,100.158403 456.33915,101.542284 L458.561374,92.1299578 Z" id="Path-64"></path>
                        <path d="M536.672339,91.1464009 C539.459403,100.124633 543.540633,104.976228 548.916028,105.701188 C554.291424,106.426148 557.662545,105.842494 559.029392,103.950226 L559.029392,115.988649 C557.435503,112.846644 553.79333,111.050796 548.102874,110.601104 C542.412417,110.151412 536.521194,113.265555 530.429204,119.943532 L536.672339,91.1464009 Z" id="Path-79"></path>
                    </g>
                </g>
            </g>
        </g>
    </g>
</svg>