<?xml version="1.0" encoding="UTF-8"?>
<svg width="343px" height="343px" viewBox="0 0 343 343" version="1.1" xmlns="http://www.w3.org/2000/svg" xmlns:xlink="http://www.w3.org/1999/xlink">
    <!-- Generator: Sketch 49.3 (51167) - http://www.bohemiancoding.com/sketch -->
    <title>Illustration</title>
    <desc>Created with Sketch.</desc>
    <defs></defs>
    <g id="Mayven-2.0" stroke="none" stroke-width="1" fill="none" fill-rule="evenodd">
        <g id="The-Teams-We-Help" transform="translate(-549.000000, -7159.000000)">
            <g id="10" transform="translate(0.000000, 6876.000000)">
                <g id="Content" transform="translate(309.000000, 191.000000)">
                    <g id="Illustration" transform="translate(240.000000, 92.000000)">
                        <path d="M171.683846,94.7533395 L171.683846,40.5872912" id="Path-31" stroke="#FFFFFF" stroke-width="2"></path>
                        <path d="M169.849613,249.051242 L169.849613,282.642989" id="Path-32" stroke="#FFFFFF" stroke-width="2"></path>
                        <path d="M94.8425503,175.95562 L42.1340628,175.95562" id="Path-33" stroke="#FFFFFF" stroke-width="2"></path>
                        <path d="M246.896792,176.699608 L280.542349,176.699608" id="Path-34" stroke="#FFFFFF" stroke-width="2" opacity="0.200000003"></path>
                        <path d="M91.6887911,99.53077 L114.779991,122.62197" id="Path-36" stroke="#FFFFFF" stroke-width="2"></path>
                        <path d="M274.627881,86.3589122 L255.648624,105.338169" id="Path-35" stroke="#FFFFFF" stroke-width="2"></path>
                        <path d="M227.466547,234.910797 L258.578747,266.022997" id="Path-37" stroke="#FFFFFF" stroke-width="2"></path>
                        <path d="M117.681569,229.489981 L82.3385384,264.833011" id="Path-38" stroke="#FFFFFF" stroke-width="2" opacity="0.200000003"></path>
                        <path d="M93.9067167,16.7165159 L116.488381,58.9179317" id="Path-39" stroke="#FFFFFF" stroke-width="2"></path>
                        <path d="M235.947539,52.7344113 L210.69173,93.0103494" id="Path-40" stroke="#FFFFFF" stroke-width="2" opacity="0.200000003"></path>
                        <path d="M274.225472,138.821743 L248.352013,144.481197" id="Path-41" stroke="#FFFFFF" stroke-width="2"></path>
                        <path d="M257.148849,210.029321 L293.899034,225.229598" id="Path-42" stroke="#FFFFFF" stroke-width="2" opacity="0.200000003"></path>
                        <path d="M211.211118,274.454445 L220.443116,301.048496" id="Path-43" stroke="#FFFFFF" stroke-width="2" opacity="0.200000003"></path>
                        <path d="M122.178249,292.904404 L105.012722,331.638557" id="Path-44" stroke="#FFFFFF" stroke-width="2" opacity="0.200000003"></path>
                        <path d="M69.1235036,214.205479 L6.14190295,237.08661" id="Path-45" stroke="#FFFFFF" stroke-width="2"></path>
                        <path d="M69.5727037,129.89623 L30.1507137,112.007771" id="Path-46" stroke="#FFFFFF" stroke-width="2"></path>
                        <path d="M299.376953,154.214844 L342.332031,151.804688" id="Path-47" stroke="#FFFFFF" stroke-width="2"></path>
                        <path d="M280.921875,113.888672 L327.625,95.9902344" id="Path-48" stroke="#FFFFFF" stroke-width="2" opacity="0.200000003"></path>
                        <path d="M247.642578,73.0878906 L279.431641,36.5605469" id="Path-49" stroke="#FFFFFF" stroke-width="2"></path>
                        <path d="M202.074219,44.8574219 C202.074219,44.8574219 204.108073,37.453776 208.175781,22.6464844" id="Path-50" stroke="#FFFFFF" stroke-width="2" opacity="0.200000003"></path>
                        <path d="M143.267578,46.5097656 C143.267578,46.5097656 140.421875,31.1080729 134.730469,0.3046875" id="Path-51" stroke="#FFFFFF" stroke-width="2" opacity="0.200000003"></path>
                        <path d="M72.5351562,79.9394531 L41.1757812,51.6699219" id="Path-52" stroke="#FFFFFF" stroke-width="2" opacity="0.200000003"></path>
                        <path d="M40.9824219,148.441406 L0.32421875,143.736328" id="Path-53" stroke="#FFFFFF" stroke-width="2" opacity="0.200000003"></path>
                        <path d="M37.6074219,197.582031 L5.59179688,205.867188" id="Path-54" stroke="#FFFFFF" stroke-width="2" opacity="0.200000003"></path>
                        <path d="M58.4335938,246.931641 L22.9121094,266.189453" id="Path-55" stroke="#FFFFFF" stroke-width="2" opacity="0.200000003"></path>
                        <path d="M99.9726562,281.833984 L76.7597656,313.398438" id="Path-56" stroke="#FFFFFF" stroke-width="2"></path>
                        <path d="M169.927734,299.738281 L169.927734,342.148438" id="Path-57" stroke="#FFFFFF" stroke-width="2" opacity="0.200000003"></path>
                        <path d="M237.560547,281.080078 L262.175781,314.220703" id="Path-58" stroke="#FFFFFF" stroke-width="2" opacity="0.200000003"></path>
                        <path d="M272.005859,240.443359 L298.029297,257.591797" id="Path-59" stroke="#FFFFFF" stroke-width="2"></path>
                        <path d="M298.578125,197.142578 L337.478516,203.791016" id="Path-60" stroke="#FFFFFF" stroke-width="2"></path>
                        <circle id="Oval-13" fill="#FFFFFF" cx="171" cy="173" r="52"></circle>
                        <path d="M208.719393,135 C186.13422,137.274049 174.227756,149.813188 173,172.617417" id="Path-30" stroke="#1F3947" stroke-width="2" transform="translate(190.859696, 153.808709) scale(-1, 1) translate(-190.859696, -153.808709) "></path>
                    </g>
                </g>
            </g>
        </g>
    </g>
</svg>