<?xml version="1.0" encoding="UTF-8"?>
<svg width="555px" height="276px" viewBox="0 0 555 276" version="1.1" xmlns="http://www.w3.org/2000/svg" xmlns:xlink="http://www.w3.org/1999/xlink">
    <!-- Generator: Sketch 49.3 (51167) - http://www.bohemiancoding.com/sketch -->
    <title>Illustration</title>
    <desc>Created with Sketch.</desc>
    <defs></defs>
    <g id="Mayven-2.0" stroke="none" stroke-width="1" fill="none" fill-rule="evenodd">
        <g id="The-Teams-We-Help" transform="translate(-434.000000, -5717.000000)">
            <g id="8" transform="translate(0.000000, 5348.000000)">
                <g id="Content" transform="translate(188.000000, 166.000000)">
                    <g id="Illustration" transform="translate(246.000000, 204.000000)">
                        <rect id="Rectangle-10" fill="#FFFFFF" x="36" y="215" width="500" height="2"></rect>
                        <g id="Road" opacity="0.200000003" transform="translate(59.000000, 233.000000)" fill="#FFFFFF">
                            <rect id="Rectangle-11" x="22" y="20" width="48" height="2"></rect>
                            <rect id="Rectangle-11" x="95" y="20" width="18" height="2"></rect>
                            <rect id="Rectangle-11" x="141" y="20" width="78" height="2"></rect>
                            <rect id="Rectangle-11" x="251" y="20" width="18" height="2"></rect>
                            <rect id="Rectangle-11" x="293" y="20" width="118" height="2"></rect>
                            <rect id="Rectangle-11" x="0" y="0" width="46" height="2"></rect>
                            <rect id="Rectangle-11" x="73" y="0" width="19" height="2"></rect>
                            <rect id="Rectangle-11" x="120" y="0" width="47" height="2"></rect>
                            <rect id="Rectangle-11" x="190" y="0" width="77" height="2"></rect>
                            <rect id="Rectangle-11" x="286" y="0" width="50" height="2"></rect>
                            <rect id="Rectangle-11" x="362" y="0" width="26" height="2"></rect>
                            <rect id="Rectangle-11" x="73" y="40" width="19" height="2"></rect>
                            <rect id="Rectangle-11" x="120" y="40" width="47" height="2"></rect>
                            <rect id="Rectangle-11" x="190" y="40" width="77" height="2"></rect>
                            <rect id="Rectangle-11" x="286" y="40" width="50" height="2"></rect>
                            <rect id="Rectangle-11" x="362" y="40" width="26" height="2"></rect>
                            <rect id="Rectangle-11" x="408" y="0" width="48" height="2"></rect>
                        </g>
                        <g id="Kid" transform="translate(166.000000, 38.000000)" stroke="#FFFFFF" stroke-width="2">
                            <path d="M20.3490919,23.7285224 C40.5612049,30.5903371 55.3845002,31.9695619 64.8189779,27.8661966 C74.2534556,23.7628314 78.0581334,15.8338672 76.2330112,4.07930399 L62.5068338,12.7386187 L62.5068338,0.588772707 C58.0985079,7.01415137 46.4875317,11.6850464 27.6739053,14.6014579" id="Path"></path>
                            <path d="M63.1579942,29.2796677 C66.9331826,41.6642071 66.8908405,55.9783408 53.6714258,62.186055 C40.452011,68.3937692 26.7441214,59.5933135 23.336904,52.8680739 C19.9296865,46.1428343 18.3166847,32.4988757 26.7441214,25.9417426" id="Path-2"></path>
                            <path d="M54.6772048,6.87639083 C47.4481592,1.63609621 39.3171649,-0.109507627 30.2842217,1.63957931 C26.3651143,2.39845264 18.8221399,5.78127545 13.597952,10.7647274 C8.56515956,15.5656037 4.64722634,25.0052373 4.64722634,32.5386822 C4.64722634,58.0101146 17.2195979,62.4553804 17.2195979,62.4553804 C17.2195979,62.4553804 17.2195979,59.6000209 17.2195979,53.8893019 L23.1974782,53.8893019" id="Path-3"></path>
                            <path d="M50.0369406,53.0166691 C43.1566657,53.6450425 38.3919834,52.0760516 35.7428936,48.3096964" id="Path-4" transform="translate(42.889917, 50.730568) rotate(-4.000000) translate(-42.889917, -50.730568) "></path>
                            <path d="M56.6691744,94.0002908 C57.5157,78.3181268 55.2527677,69.1129145 49.8803776,66.384654 C41.8217924,62.2922632 26.386683,64.8409016 26.386683,77.4757007 C26.386683,85.8989 26.386683,94.7976169 26.386683,104.171851 L49.8803776,104.171851" id="Path-5"></path>
                            <path d="M46.8306414,72.9228517 L53.1811684,83.8238288 L38.7101539,92.357867 C34.2077469,85.8704803 31.9565433,81.0689531 31.9565433,77.9532853 C31.9565433,73.2797837 35.7518208,68.1929069 42.738956,69.7543472" id="Path-6"></path>
                            <path d="M27.0007418,105.642265 C27.0007418,112.40037 29.3940326,117.219437 34.1806141,120.099465 C38.9671956,122.979493 44.7245215,130.503672 51.452592,142.672003 L71.0325358,132.715841 C61.3390788,115.867816 56.4923503,107.443803 56.4923503,107.443803" id="Path-7"></path>
                            <polyline id="Path-8" points="46.01978 135.183835 39.9854981 142.179526 24.8997934 131.966603 32.2592945 118.756729"></polyline>
                            <path d="M56.3678601,141.009368 L65.2038727,163.765708 L76.1436313,163.765708 C73.6961455,148.594815 71.0585367,139.116631 68.230805,135.331157" id="Path-9"></path>
                            <path d="M26.9979443,133.869162 L10.6183799,153.773066 L18.3887987,161.563268 C29.845354,151.238677 36.0896722,144.259227 37.1217532,140.624918" id="Path-10"></path>
                            <polyline id="Path-11" points="11.2492239 154.671029 3.977033 161.973992 14.4314194 176.543436 26.4370386 176.543436 27.4902597 173.192248 20.8573561 170.131422 18.7494138 161.973992"></polyline>
                            <polyline id="Path-12" points="66.1424456 164.362011 66.1424456 175.463075 92.3798701 175.463075 95.512987 174.074823 94.6785714 170.022632 85.3003247 167.36351 75.3421377 162.908434"></polyline>
                            <polygon id="Path-13" points="41.0369147 91.1751502 51.9295716 107.325945 81.5204926 104.02032 89.4906684 107.325945 93.7792887 102.096716 86.4707299 96.4718212 58.2220659 96.4718212 50.7876698 85.2576036"></polygon>
                            <polygon id="Path-14" points="26.2107572 97.2406283 12.7400568 112.140513 2.93355264 110.508101 0.962689594 114.86322 7.14244327 119.852525 16.4904048 119.852525 27.3837345 110.065166"></polygon>
                            <path d="M37.6481034,35.493919 L37.6481034,42.2927921" id="Path-15"></path>
                            <path d="M52.193558,35.493919 L52.193558,42.2927921" id="Path-15"></path>
                        </g>
                        <g id="Dog" transform="translate(291.000000, 115.000000)" stroke="#FFFFFF" stroke-width="2">
                            <path d="M93.3583627,19.9228788 L99.5108321,22.7925171" id="Path-15"></path>
                            <path d="M22.9519076,17.7755289 C24.817181,37.4548149 35.2850201,46.8742422 54.355425,46.0338109 C73.4258298,45.1933796 83.8900052,37.674288 85.7479509,23.4765362 L85.7479509,10.3533475 C86.957814,3.53868722 89.4972236,0.131357084 93.36618,0.131357084" id="Path-16"></path>
                            <path d="M85.8432093,13.6368932 C89.5916679,12.233324 92.4038259,11.7654676 94.2796835,12.233324 C97.09347,12.9351086 102.545181,18.0173972 105.162344,18.0173972 C106.90712,18.0173972 110.40237,18.0173972 115.648095,18.0173972 C113.590941,29.1400824 108.62346,34.701425 100.745652,34.701425 C88.9289411,34.701425 103.22656,40.4947531 86.7624611,64.6003051" id="Path-17"></path>
                            <path d="M0.177115539,101.886827 C0.165330173,87.9775243 1.69985838,79.766705 4.78070018,77.2543691 C9.40196286,73.4858652 16.7397849,78.7177946 22.1287542,69.668499 C27.5177235,60.6192035 16.7397849,48.2936917 33.6513793,41.4725164" id="Path-18"></path>
                            <path d="M93.1946489,101.199391 C83.2832605,91.4267782 77.0073826,79.6793924 74.3670153,65.9572335" id="Path-19"></path>
                            <path d="M75.3804663,71.1928548 C65.0595107,73.4268029 51.7746328,70.9852822 35.5258325,63.8682929" id="Path-20"></path>
                            <path d="M43.2372569,100.828732 L33.945811,83.3845789 C40.3736789,80.8329603 44.1990577,75.3594733 45.4219475,66.9641181" id="Path-21"></path>
                            <path d="M66.7653068,99.15448 C67.1274106,88.8892316 70.6754803,80.0072412 77.4095161,72.5085089" id="Path-22" transform="translate(72.087411, 85.831494) rotate(-8.000000) translate(-72.087411, -85.831494) "></path>
                            <path d="M58.048939,99.0800223 C60.1372659,89.4964904 64.032057,80.7555306 69.7333124,72.8571429" id="Path-22" transform="translate(63.891126, 85.968583) rotate(-25.000000) translate(-63.891126, -85.968583) "></path>
                            <path d="M0.763510765,100.918327 L7.28689007,100.597769 C7.01378413,92.8436818 7.87893169,87.8191479 9.88233275,85.5241675 C12.8874343,82.081697 30.666412,90.7151391 36.1170778,65.0039611" id="Path-23"></path>
                            <path d="M92.0938794,100.853913 L96.3568869,96.4954234 C90.5935181,88.8020085 87.4699618,77.9248726 86.9862178,63.8640158" id="Path-24"></path>
                            <path d="M63.0030536,99.4327881 L69.4668243,98.6338052" id="Path-25"></path>
                            <path d="M41.9623766,100.336143 L38.8066107,101.844088 C29.6959913,89.7827332 24.0173074,83.7520559 21.7705592,83.7520559" id="Path-26"></path>
                        </g>
                        <g id="Cloud" transform="translate(308.000000, 48.000000)" stroke="#FFFFFF">
                            <rect id="Rectangle-2" x="0.5" y="12.5" width="55" height="1"></rect>
                            <path d="M7.05520645,12.8863011 C7.05520645,12.8863011 7.98649275,6.38660999 14.4551879,8.33416416 C14.4551879,3.75217655 23.7834349,-5.44460136 32.1657183,4.57512304 C33.9630135,1.49137973 47.3748902,-1.95908853 48.7186786,12.8863011" id="Path-7" stroke-width="2"></path>
                        </g>
                        <g id="Cloud" transform="translate(475.000000, 77.000000)" stroke="#FFFFFF" stroke-width="2">
                            <rect id="Rectangle" x="1" y="20" width="78" height="1"></rect>
                            <path d="M6.35671008,19.9965799 C6.21005676,15.3413242 7.72886346,12.2138469 10.9131302,10.6141479 C15.6895303,8.21459939 20.1827769,11.3780296 21.536866,12.9902934 C22.1484793,10.6141479 21.8916347,8.48231662 25.4263256,6.49486641 C28.9610165,4.50741621 31.8986999,7.96169974 33.1564045,8.40193054 C34.1215101,5.90372133 37.0294825,0.534481441 44.8189849,0.534481441 C52.6084873,0.534481441 56.3058606,7.63979401 57.3897317,12.4797606 C58.9189835,11.5201644 63.6138979,8.90220454 68.1640729,11.3780296 C71.1975229,13.0285796 72.9115747,15.9014297 73.3062283,19.9965799" id="Path-2"></path>
                        </g>
                        <g id="Cloud" transform="translate(91.000000, 7.000000) scale(-1, 1) translate(-91.000000, -7.000000) translate(63.000000, 0.000000)" stroke="#FFFFFF">
                            <rect id="Rectangle-2" x="0.5" y="12.5" width="55" height="1"></rect>
                            <path d="M7.05520645,12.8863011 C7.05520645,12.8863011 7.98649275,6.38660999 14.4551879,8.33416416 C14.4551879,3.75217655 23.7834349,-5.44460136 32.1657183,4.57512304 C33.9630135,1.49137973 47.3748902,-1.95908853 48.7186786,12.8863011" id="Path-7" stroke-width="2"></path>
                        </g>
                        <g id="Cloud" transform="translate(420.000000, 4.000000)" stroke="#FFFFFF" stroke-width="2">
                            <rect id="Rectangle-3" x="1" y="25" width="76" height="1"></rect>
                            <path d="M6.08649322,25.1533744 C4.54707627,22.5514931 4.54707627,20.0328744 6.08649322,17.5975182 C8.39561865,13.944484 12.0735498,14.8903065 14.2817979,15.5541631 C13.4722373,12.6940105 13.7883869,11.1625771 16.1268537,9.26030037 C18.4653204,7.35802361 23.3705522,8.02651169 24.7767533,11.8130711 C26.0292144,9.30538204 28.1503644,7.32196621 31.1951106,8.10320435 C34.2398568,8.88444249 34.4739347,10.7202527 35.2534502,11.8130711 C37.0649744,3.46904056 42.435472,0.104676947 47.4389586,0.104676947 C52.4424453,0.104676947 60.0523433,2.80015036 60.0523433,11.8130711 C63.578772,9.75793258 68.885115,11.8130711 70.8166909,15.5541631 C72.1044081,18.0482244 71.8606974,21.2479615 70.0855588,25.1533744" id="Path-3"></path>
                        </g>
                        <g id="Cloud" transform="translate(39.000000, 97.000000) scale(-1, 1) translate(-39.000000, -97.000000) translate(0.000000, 84.000000)" stroke="#FFFFFF" stroke-width="2">
                            <rect id="Rectangle-3" x="1" y="25" width="76" height="1"></rect>
                            <path d="M6.08649322,25.1533744 C4.54707627,22.5514931 4.54707627,20.0328744 6.08649322,17.5975182 C8.39561865,13.944484 12.0735498,14.8903065 14.2817979,15.5541631 C13.4722373,12.6940105 13.7883869,11.1625771 16.1268537,9.26030037 C18.4653204,7.35802361 23.3705522,8.02651169 24.7767533,11.8130711 C26.0292144,9.30538204 28.1503644,7.32196621 31.1951106,8.10320435 C34.2398568,8.88444249 34.4739347,10.7202527 35.2534502,11.8130711 C37.0649744,3.46904056 42.435472,0.104676947 47.4389586,0.104676947 C52.4424453,0.104676947 60.0523433,2.80015036 60.0523433,11.8130711 C63.578772,9.75793258 68.885115,11.8130711 70.8166909,15.5541631 C72.1044081,18.0482244 71.8606974,21.2479615 70.0855588,25.1533744" id="Path-3"></path>
                        </g>
                    </g>
                </g>
            </g>
        </g>
    </g>
</svg>