<?xml version="1.0" encoding="UTF-8"?>
<svg width="414px" height="200px" viewBox="0 0 414 200" version="1.1" xmlns="http://www.w3.org/2000/svg" xmlns:xlink="http://www.w3.org/1999/xlink">
    <!-- Generator: Sketch 49.3 (51167) - http://www.bohemiancoding.com/sketch -->
    <title>Teams</title>
    <desc>Created with Sketch.</desc>
    <defs></defs>
    <g id="Mayven-2.0" stroke="none" stroke-width="1" fill="none" fill-rule="evenodd">
        <g id="The-Teams-We-Help" transform="translate(-514.000000, -8013.000000)">
            <g id="11" transform="translate(0.000000, 7640.000000)">
                <g id="Content" transform="translate(393.000000, 222.000000)">
                    <g id="Illustration" transform="translate(107.000000, 130.000000)">
                        <g id="Teams">
                            <g id="Team" transform="translate(380.000000, 0.000000)" fill="#FFFFFF">
                                <polygon id="Triangle-2" points="30.5 30 38 42 23 42"></polygon>
                                <polygon id="Triangle-2" points="30.5 86 38 98 23 98"></polygon>
                                <polygon id="Triangle-2" points="30.5 142 38 154 23 154"></polygon>
                                <polygon id="Triangle-2" points="30.5 198 38 210 23 210"></polygon>
                            </g>
                            <g id="Team" fill="#FFFFFF">
                                <circle id="Oval-14" cx="30" cy="36" r="6"></circle>
                                <circle id="Oval-14" cx="30" cy="92" r="6"></circle>
                                <circle id="Oval-14" cx="30" cy="148" r="6"></circle>
                                <circle id="Oval-14" cx="30" cy="204" r="6"></circle>
                            </g>
                            <path d="M30.1328125,22.4311046 C31.7454427,22.4311046 158.436314,40.7059971 410.205428,77.2557821 C421.22926,79.6615377 426.741176,85.334374 426.741176,94.2742908 C426.741176,103.214208 421.22926,108.260662 410.205428,109.413655 C163.365351,126.500957 36.6744792,135.044608 30.1328125,135.044608 C20.3203125,135.044608 14.4990727,141.091827 15.1202216,149.139574 C15.7413705,157.187321 21.1900174,161.377977 30.1328125,161.377977 C36.0946759,161.377977 162.785548,125.091297 410.205428,52.5179356 C422.464669,48.1872198 427.976585,42.486955 426.741176,35.4171412 C424.888063,24.8124204 418.090053,22.4311046 410.205428,23.1705274 C402.320803,23.9099502 37.2673365,75.6336895 30.1328125,77.2557821 C22.9982885,78.8778746 15.6924746,82.5474112 15.6924746,92.1718695 C15.6924746,98.5881751 20.5059206,103.192502 30.1328125,105.98485 L410.205428,189.230835 C421.22926,192.643146 426.741176,198.203338 426.741176,205.911411 C426.741176,213.619485 421.22926,218.045593 410.205428,219.189735 L30.1328125,216.679381 C20.5059206,215.921122 15.6924746,211.807601 15.6924746,204.33882 C15.6924746,193.135647 23.4736328,191.609375 30.1328125,190.552391 C34.5722656,189.847736 161.263137,180.861554 410.205428,163.593847 C421.22926,162.584878 426.741176,158.150725 426.741176,150.291386 C426.741176,142.432048 421.22926,137.349789 410.205428,135.044608 L30.1328125,49.092751 C19.7397057,47.3942392 14.9262597,42.5260035 15.6924746,34.4880439 C16.8417969,22.4311046 27.7138672,22.4311046 30.1328125,22.4311046 Z" id="Path-61" stroke="#FFFFFF" stroke-width="2"></path>
                        </g>
                    </g>
                </g>
            </g>
        </g>
    </g>
</svg>