<?xml version="1.0" encoding="UTF-8"?>
<svg width="1440px" height="259px" viewBox="0 0 1440 259" version="1.1" xmlns="http://www.w3.org/2000/svg" xmlns:xlink="http://www.w3.org/1999/xlink">
    <!-- Generator: Sketch 49.3 (51167) - http://www.bohemiancoding.com/sketch -->
    <title>Illustration</title>
    <desc>Created with Sketch.</desc>
    <defs></defs>
    <g id="Mayven-2.0" stroke="none" stroke-width="1" fill="none" fill-rule="evenodd">
        <g id="The-Teams-We-Help" transform="translate(0.000000, -2676.000000)">
            <g id="4" transform="translate(-21.000000, 2292.000000)">
                <g id="Container" transform="translate(0.000000, 216.000000)">
                    <g id="Illustration" transform="translate(0.000000, 169.000000)">
                        <polyline id="Path-14" stroke="#FFFFFF" stroke-width="2" opacity="0.200000003" points="1652.68359 121.910156 1601.00155 121.910156 1601.00155 150.880879 1569.7478 150.880879 1569.7478 123.737829 1534.58591 123.737829 1534.58591 150.880879 1499.83203 150.880879 1499.83203 123.737829 1461.78516 123.737829 1461.78516 150.880879 1431.09766 150.880879 1431.09766 121.910156 1431.09766 88.2539062 1398.875 88.2539062 1398.875 123.737829 1364.64062 123.737829 1364.64062 88.2539062 1329.53125 88.2539062 1329.53125 123.737829 1296.35156 123.737829 1296.35156 88.2539062 1260.01172 88.2539062 1260.01172 123.737829 1260.01172 150.880879 1223.91016 150.880879 1223.91016 123.737829 1190.55469 123.737829 1190.55469 150.880879 1157.11719 150.880879 1157.11719 123.737829 1123.90234 123.737829 1123.90234 150.880879 1091.51172 150.880879 1091.51172 123.737829 1057.60938 123.737829 1057.60938 150.880879 1021.61719 150.880879 1021.61719 88.2539062 989.550781 88.2539062 989.550781 123.737829 956.863281 123.737829 956.863281 88.2539062 924.855469 88.2539062 924.855469 123.737829 892.652344 123.737829 892.652344 88.2539062 862.667969 88.2539062 862.667969 123.737829 791.358544 123.737829"></polyline>
                        <circle id="Oval-9" stroke="#4B606B" stroke-width="2" cx="741" cy="124" r="50"></circle>
                        <circle id="Oval-9" fill="#D8D8D8" opacity="0.200000003" cx="741" cy="124" r="33"></circle>
                        <polyline id="Path-13" stroke="#FFFFFF" stroke-width="2" opacity="0.200000003" points="0.34375 55.515625 41.8040039 55.515625 41.8040039 81.5635076 69.9314265 81.5635076 69.9314265 54.7697882 100.253932 54.7697882 100.253932 27.1564701 70.3130029 27.1564701 70.3130029 0.49102646 100.154893 0.49102646 133.845696 0.49102646 133.845696 29.6640913 133.845696 55.5825759 163.977671 55.5825759 163.977671 82.1011988 134.651157 82.1011988 100.285368 82.1011988 100.285368 110.739851 68.0236668 110.739851 68.0236668 136.546981 40.627583 136.546981 40.627583 163.315879 69.355566 163.315879 99.1544756 163.315879 99.1544756 137.868778 129.825463 137.868778 129.825463 164.739954 159.247459 164.739954 159.247459 138.037581 159.247459 110.308585 189.741023 110.308585 189.741023 137.97602 220.510396 137.97602 220.510396 167.367669 191.127493 167.367669 191.127493 194.337832 160.679572 194.337832 133.193467 194.337832 133.193467 225.165154 163.067334 225.165154 188.595628 225.165154 188.595628 256.674161 217.847735 256.674161 217.847735 229.310399 247.824441 229.310399 247.824441 201.421493 278.546875 201.421493 278.546875 169.460462 278.546875 139.370349 252.422849 139.370349 252.422849 111.833208 227.603034 111.833208 227.603034 84.022564 196.107199 84.022564 196.107199 58.8312123 227.090159 58.8312123 227.090159 30.1898884 259.042484 30.1898884 259.042484 61.3274621 288.276116 61.3274621 288.276116 92.4623137 317.378054 92.4623137 317.378054 121.106129 317.378054 148.777013 349.475593 148.777013 349.475593 178.368636 317.882031 178.368636 317.882031 206.164432 317.882031 232.250845 348.305666 232.250845 348.305666 207.162562 380.719904 207.162562 380.719904 179.025364 380.719904 147.948792 380.719904 121.153291 353.821741 121.153291 353.821741 89.0218769 383.417319 89.0218769 383.417319 58.3953962 416.172014 58.3953962 416.172014 89.1881348 416.172014 121.198516 416.172014 149.760524 416.172014 179.491749 449.688656 179.491749 449.688656 210.304747 484.642237 210.304747 484.642237 180.854022 484.642237 152.767731 456.0848 152.767731 456.0848 124.851449 485.250449 124.851449 485.250449 92.7795266 455.749081 92.7795266 455.749081 64.2081321 484.995502 64.2081321 521.772645 64.2081321 521.772645 95.5361788 521.772645 128.250183 521.772645 155.095115 521.772645 178.664843 553.908592 178.664843 553.908592 148.737028 585.256026 148.737028 585.256026 122.039516 555.179702 122.039516 555.179702 93.21092 585.655275 93.21092 618.996097 93.21092 618.996097 124.102591 690.623524 124.102591"></polyline>
                    </g>
                </g>
            </g>
        </g>
    </g>
</svg>