<?xml version="1.0" encoding="utf-8"?>
<!-- Generator: Adobe Illustrator 21.0.0, SVG Export Plug-In . SVG Version: 6.00 Build 0)  -->
<svg version="1.1" id="Layer_1" xmlns="http://www.w3.org/2000/svg" xmlns:xlink="http://www.w3.org/1999/xlink" x="0px" y="0px"
	 viewBox="0 0 203 160" style="enable-background:new 0 0 203 160;" xml:space="preserve">
<style type="text/css">
	.st0{fill:none;stroke:#FFFFFF;stroke-width:2;}
</style>
<title>San Francisco</title>
<desc>Created with Sketch.</desc>
<g id="Mayven-2.0">
	<g id="Contact-Us" transform="translate(-265.000000, -341.000000)">
		<g id="Cities">
			<g id="San-Francisco" transform="translate(216.000000, 345.000000)">
				<g transform="translate(50.000000, 0.000000)">
					<path id="Path-82" class="st0" d="M99,73.3C66.3,52.8,50,30.5,50,6.5"/>
					<path id="Path-82-Copy" class="st0" d="M0,73.3C32.7,52.8,49,30.5,49,6.5"/>
					<path id="Path-102" class="st0" d="M50,121.1V9.5"/>
					<path id="Path-103" class="st0" d="M3,95.2h96"/>
					<path id="Path-104" class="st0" d="M8,69.3v24.9"/>
					<path id="Path-105" class="st0" d="M22,57.3v36.9"/>
					<path id="Path-106" class="st0" d="M36,43.4v50.8"/>
					<path id="Path-107" class="st0" d="M63,43.4v49.8"/>
					<path id="Path-108" class="st0" d="M77,58.3v35.9"/>
					<path id="Path-109" class="st0" d="M91,68.3v25.9"/>
					<path id="Path-162" class="st0" d="M4,149c6.5,0.2,10.6-1.5,12.5-5.2c1.7,3.4,5,5.2,9.9,5.2c4.9,0,8.7-1.7,11.4-5.2
						c2.7,3.5,6.4,5.2,11.1,5.2s7.9-1.7,9.8-5.2c2.3,3.5,5.9,5.2,10.7,5.2s8.3-1.7,10.4-5.2c2.2,3.5,5.9,5.2,11.1,5.2
						c5.2,0,8.7-1.7,10.5-5.2c1.9,3.5,5.3,5.2,10.3,5.2s8.8-1.7,11.5-5.2c2.5,3.4,6.1,5.2,10.7,5.2c4.7,0,8.4-1.7,11.1-5.2
						c2.3,3.5,6,5.2,11.1,5.2c5.1,0,8.6-1.7,10.6-5.2c1.9,3.5,5.4,5.2,10.5,5.2c5.1,0,8.5-1.7,10-5.2c2.4,3.5,6.3,5.2,11.7,5.2"/>
					<path id="Path-162_1_" class="st0" d="M4,132c6.5,0.2,10.6-1.5,12.5-5.2c1.7,3.4,5,5.2,9.9,5.2s8.7-1.7,11.4-5.2
						c2.7,3.5,6.4,5.2,11.1,5.2s7.9-1.7,9.8-5.2"/>
					<polyline id="vv" class="st0" points="68,133.4 68,108.1 167,108.1 167,134.1 					"/>
					<path id="Path-116" class="st0" d="M85,125.1v9"/>
					<path id="Path-116_1_" class="st0" d="M100,125.1v9"/>
					<path id="Path-116_2_" class="st0" d="M117,125.1v9"/>
					<path id="Path-116_3_" class="st0" d="M135,125.1v9"/>
					<path id="Path-116_4_" class="st0" d="M153,125.1v9"/>
					<polyline id="Path-117" class="st0" points="109,108.1 109,48.4 128,48.4 128,108.1 					"/>
					<path id="Path-118" class="st0" d="M108,63.3h19"/>
					<path id="Path-119" class="st0" d="M113,48.4V35.2c-0.1-3.2,1.7-4.8,5.4-4.8c3.7,0,5.6,1.6,5.6,4.8v13.1"/>
					<path id="Path-120" class="st0" d="M114,40.4h9"/>
					<ellipse id="Oval" class="st0" cx="118.5" cy="71.8" rx="3.5" ry="3.5"/>
					<path id="Path-121" class="st0" d="M118,30.4v-10"/>
					<path id="Path-122" class="st0" d="M125,26.4c-2-2.7-4.4-4-7-4"/>
					<polyline id="Path-123" class="st0" points="201,138 190,97.2 165.2,5.5 136,98.4 					"/>
					<path id="Path-114" class="st0" d="M189,98.2h-52"/>
					<path id="Path-115" class="st0" d="M187,86.2h-45"/>
					<path id="Path-124" class="st0" d="M184,75.3h-39"/>
					<path id="Path-125" class="st0" d="M180,64.3h-32"/>
					<path id="Path-126" class="st0" d="M177,52.3h-25"/>
					<path id="Path-127" class="st0" d="M174,41.4h-19"/>
					<path id="Path-128" class="st0" d="M172,30.4h-13"/>
					<path id="Path-129" class="st0" d="M193,109.1h-15"/>
					<path id="Path-130" class="st0" d="M195,121.1h-18"/>
					<path id="Path-131" class="st0" d="M199,131.1h-21"/>
				</g>
			</g>
		</g>
	</g>
</g>
</svg>
