<?xml version="1.0" encoding="UTF-8"?>
<svg width="192px" height="171px" viewBox="0 0 192 171" version="1.1" xmlns="http://www.w3.org/2000/svg" xmlns:xlink="http://www.w3.org/1999/xlink">
    <!-- Generator: Sketch 49.2 (51160) - http://www.bohemiancoding.com/sketch -->
    <title>Illustration</title>
    <desc>Created with Sketch.</desc>
    <defs></defs>
    <g id="Mayven-2.0" stroke="none" stroke-width="1" fill="none" fill-rule="evenodd">
        <g id="Blog" transform="translate(-624.000000, -165.000000)">
            <g id="Illustration" transform="translate(624.000000, 165.000000)">
                <g id="Group-5">
                    <circle id="Oval-2" fill="#F6F7F8" cx="66" cy="56" r="56"></circle>
                    <rect id="Rectangle-7" fill="#FFFFFF" x="10" y="34" width="112" height="2"></rect>
                    <rect id="Rectangle-7" fill="#FFFFFF" x="10" y="74" width="112" height="2"></rect>
                    <rect id="Rectangle-8" fill="#1F3947" x="10" y="43" width="2" height="22"></rect>
                    <rect id="Rectangle-8" fill="#1F3947" transform="translate(11.000000, 54.000000) rotate(-270.000000) translate(-11.000000, -54.000000) " x="10" y="43" width="2" height="22"></rect>
                    <path d="M63.9726563,1.28515625 C29.9752604,38.8893229 29.9752604,75.59375 63.9726563,111.398438" id="Path-2" stroke="#FFFFFF" stroke-width="2"></path>
                    <path d="M93.9726563,1.28515625 C59.9752604,38.8893229 59.9752604,75.59375 93.9726563,111.398438" id="Path-2" stroke="#FFFFFF" stroke-width="2" transform="translate(81.223633, 56.341797) scale(-1, 1) translate(-81.223633, -56.341797) "></path>
                </g>
                <rect id="Rectangle-4" stroke="#1F3947" stroke-width="2" fill="#FFFFFF" x="112" y="34" width="74" height="96"></rect>
                <rect id="Rectangle-4" stroke="#1F3947" stroke-width="2" fill="#FFFFFF" x="122" y="44" width="54" height="76"></rect>
                <rect id="Rectangle-8" fill="#1F3947" x="180" y="145" width="2" height="22"></rect>
                <rect id="Rectangle-8" fill="#1F3947" transform="translate(181.000000, 156.000000) rotate(-270.000000) translate(-181.000000, -156.000000) " x="180" y="145" width="2" height="22"></rect>
                <rect id="Rectangle-8" fill="#1F3947" transform="translate(172.000000, 25.000000) rotate(-270.000000) translate(-172.000000, -25.000000) " x="171" y="10" width="2" height="30"></rect>
                <circle id="Oval" fill="#F6F7F8" cx="149" cy="20" r="10"></circle>
                <rect id="Rectangle-8" fill="#1F3947" transform="translate(161.000000, 19.000000) rotate(-270.000000) translate(-161.000000, -19.000000) " x="160" y="8" width="2" height="22"></rect>
                <rect id="Rectangle-4" stroke="#1F3947" stroke-width="2" fill="#FCFDFD" x="88" y="54" width="74" height="96"></rect>
                <rect id="Rectangle-6" fill="#1F3947" x="99" y="67" width="52" height="2"></rect>
                <rect id="Rectangle-6" fill="#1F3947" x="99" y="73" width="52" height="2"></rect>
                <rect id="Rectangle-6" fill="#1F3947" x="99" y="79" width="52" height="2"></rect>
                <rect id="Rectangle-6" fill="#1F3947" x="99" y="85" width="52" height="2"></rect>
                <rect id="Rectangle-6" fill="#1F3947" x="99" y="91" width="52" height="2"></rect>
                <rect id="Rectangle-6" fill="#1F3947" x="99" y="97" width="52" height="2"></rect>
                <rect id="Rectangle-6" fill="#1F3947" x="99" y="103" width="52" height="2"></rect>
                <rect id="Rectangle-6" fill="#1F3947" x="99" y="109" width="52" height="2"></rect>
                <rect id="Rectangle-6" fill="#1F3947" x="99" y="115" width="52" height="2"></rect>
                <rect id="Rectangle-6" fill="#1F3947" x="99" y="121" width="52" height="2"></rect>
                <rect id="Rectangle-6" fill="#1F3947" x="99" y="127" width="48" height="2"></rect>
                <rect id="Rectangle-6" fill="#1F3947" x="99" y="133" width="48" height="2"></rect>
                <rect id="Rectangle-4" stroke="#1F3947" stroke-width="2" fill="#FFFFFF" x="64" y="74" width="74" height="96"></rect>
                <rect id="Rectangle-5" fill="#F6F7F8" x="75" y="86" width="52" height="36"></rect>
                <rect id="Rectangle-6" fill="#1F3947" x="75" y="130" width="52" height="2"></rect>
                <rect id="Rectangle-6" fill="#1F3947" x="75" y="136" width="52" height="2"></rect>
                <rect id="Rectangle-6" fill="#1F3947" x="75" y="142" width="52" height="2"></rect>
                <rect id="Rectangle-6" fill="#1F3947" x="75" y="148" width="52" height="2"></rect>
                <rect id="Rectangle-6" fill="#1F3947" x="75" y="154" width="42" height="2"></rect>
                <circle id="Oval" fill="#1F3947" cx="99" cy="105" r="10"></circle>
                <circle id="Oval" stroke="#1F3947" stroke-width="2" cx="39" cy="124" r="10"></circle>
                <circle id="Oval" stroke="#1F3947" cx="108" cy="98" r="5"></circle>
            </g>
        </g>
    </g>
</svg>