<?xml version="1.0" encoding="utf-8"?>
<!-- Generator: Adobe Illustrator 21.0.0, SVG Export Plug-In . SVG Version: 6.00 Build 0)  -->
<svg version="1.1" id="Layer_1" xmlns="http://www.w3.org/2000/svg" xmlns:xlink="http://www.w3.org/1999/xlink" x="0px" y="0px"
	 viewBox="0 0 202 164" style="enable-background:new 0 0 202 164;" xml:space="preserve">
<style type="text/css">
	.st0{fill:none;stroke:#FFFFFF;stroke-width:2;}
	.st1{fill:#FFFFFF;}
</style>
<title>Austin</title>
<desc>Created with Sketch.</desc>
<g id="Mayven-2.0">
	<g id="Contact-Us" transform="translate(-619.000000, -331.000000)">
		<g id="Cities">
			<g id="Austin" transform="translate(570.000000, 333.000000)">
				<g transform="translate(49.000000, 0.000000)">
					<path id="Path-132" class="st0" d="M0,116.1h202"/>
					<rect id="Rectangle-2" x="92" y="64.8" class="st1" width="3" height="4"/>
					<rect id="Rectangle-2_1_" x="98" y="64.8" class="st1" width="3" height="4"/>
					<rect id="Rectangle-2_2_" x="104" y="64.8" class="st1" width="3" height="4"/>
					<rect id="Rectangle-2_3_" x="110" y="64.8" class="st1" width="3" height="4"/>
					<path id="Path-132-Copy" class="st0" d="M0,109.1h202"/>
					<polyline id="Path-133" class="st0" points="20,102.7 20,37.4 25.7,37.4 25.7,31.3 32.4,31.3 32.4,25 36.2,25 36.2,20 40.9,20 
						40.9,12 55.9,12 55.9,20.1 60.7,20.1 60.7,25.4 65.9,25.4 65.9,31.3 70.9,31.3 70.9,37.2 78,37.2 78,78.3 					"/>
					<polyline id="Path-134" class="st0" points="77,26.2 85.8,26.2 85.8,11.1 91.4,5 104.1,5 104.1,15.6 112.7,15.6 112.7,23.7 
						123,23.7 123,39.9 					"/>
					<rect id="Rectangle-3" x="148" y="24.9" class="st0" width="11" height="7"/>
					<polyline id="Path-135" class="st0" points="134,80.3 134,31.9 173,31.9 173,101.7 					"/>
					<path id="Path-136" class="st0" d="M142.5,80.7V32.9"/>
					<path id="Path-137" class="st0" d="M164.5,100.7V31.9"/>
					<polyline id="Path-138" class="st0" points="179,63.8 186.8,63.8 186.8,85.2 197,85.2 197,101.7 					"/>
					<path id="Path-139" class="st0" d="M65,103.7V88.3h12.4c0.7-2.5,2.2-3.8,4.6-3.8c3.6,0,0.3-4.3,6.2-4.3"/>
					<path id="Path-139_1_" class="st0" d="M140.2,103.7V88.3h-12.4c-0.7-2.5-2.2-3.8-4.6-3.8c-3.6,0-0.3-4.3-6.2-4.3"/>
					<path id="Path-140" class="st0" d="M88,81.3V66.9c-0.1-3.4,1.2-5.1,4.1-5.1s10,0,21.4,0c2.7,0,4,1.5,4,4.4c0,2.9,0,8,0,15.1"/>
					<path id="Path-143" class="st0" d="M91.2,61.8v-3.6c-2.8,0-4.2-0.9-4.2-2.7c0-2.7,3.5-2.7,5-2.7"/>
					<path id="Path-143-Copy" class="st0" d="M112.8,61.8v-3.6c2.8,0,4.2-0.9,4.2-2.7c0-2.7-3.5-2.7-5-2.7"/>
					<path id="Path-145" class="st0" d="M91,53.8c0-6,3.5-11,11.6-11s10.5,5.5,10.5,11"/>
					<path id="Path-146" class="st0" d="M102,42.9v-3"/>
					<rect id="Rectangle" x="72" y="98.7" class="st1" width="3" height="3"/>
					<rect id="Rectangle_1_" x="87" y="98.7" class="st1" width="3" height="3"/>
					<rect id="Rectangle_2_" x="79" y="98.7" class="st1" width="3" height="3"/>
					<rect id="Rectangle_3_" x="72" y="92.7" class="st1" width="3" height="3"/>
					<rect id="Rectangle_4_" x="87" y="92.7" class="st1" width="3" height="3"/>
					<rect id="Rectangle_5_" x="87" y="86.7" class="st1" width="3" height="3"/>
					<rect id="Rectangle_6_" x="42" y="26.9" class="st1" width="4" height="4"/>
					<rect id="Rectangle_7_" x="50" y="26.9" class="st1" width="4" height="4"/>
					<rect id="Rectangle_8_" x="58" y="34.9" class="st1" width="4" height="4"/>
					<rect id="Rectangle_9_" x="50" y="34.9" class="st1" width="4" height="4"/>
					<rect id="Rectangle_10_" x="42" y="34.9" class="st1" width="4" height="4"/>
					<rect id="Rectangle_11_" x="34" y="34.9" class="st1" width="4" height="4"/>
					<rect id="Rectangle_12_" x="26" y="42.9" class="st1" width="4" height="4"/>
					<rect id="Rectangle_13_" x="34" y="42.9" class="st1" width="4" height="4"/>
					<rect id="Rectangle_14_" x="42" y="42.9" class="st1" width="4" height="4"/>
					<rect id="Rectangle_15_" x="50" y="42.9" class="st1" width="4" height="4"/>
					<rect id="Rectangle_16_" x="58" y="42.9" class="st1" width="4" height="4"/>
					<rect id="Rectangle_17_" x="66" y="42.9" class="st1" width="4" height="4"/>
					<rect id="Rectangle_18_" x="26" y="50.8" class="st1" width="4" height="4"/>
					<rect id="Rectangle_19_" x="34" y="50.8" class="st1" width="4" height="4"/>
					<rect id="Rectangle_20_" x="42" y="50.8" class="st1" width="4" height="4"/>
					<rect id="Rectangle_21_" x="50" y="50.8" class="st1" width="4" height="4"/>
					<rect id="Rectangle_22_" x="58" y="50.8" class="st1" width="4" height="4"/>
					<rect id="Rectangle_23_" x="66" y="50.8" class="st1" width="4" height="4"/>
					<rect id="Rectangle_24_" x="26" y="58.8" class="st1" width="4" height="4"/>
					<rect id="Rectangle_25_" x="34" y="58.8" class="st1" width="4" height="4"/>
					<rect id="Rectangle_26_" x="42" y="58.8" class="st1" width="4" height="4"/>
					<rect id="Rectangle_27_" x="50" y="58.8" class="st1" width="4" height="4"/>
					<rect id="Rectangle_28_" x="58" y="58.8" class="st1" width="4" height="4"/>
					<rect id="Rectangle_29_" x="66" y="58.8" class="st1" width="4" height="4"/>
					<rect id="Rectangle_30_" x="26" y="66.8" class="st1" width="4" height="4"/>
					<rect id="Rectangle_31_" x="34" y="66.8" class="st1" width="4" height="4"/>
					<rect id="Rectangle_32_" x="42" y="66.8" class="st1" width="4" height="4"/>
					<rect id="Rectangle_33_" x="50" y="66.8" class="st1" width="4" height="4"/>
					<rect id="Rectangle_34_" x="58" y="66.8" class="st1" width="4" height="4"/>
					<rect id="Rectangle_35_" x="66" y="66.8" class="st1" width="4" height="4"/>
					<rect id="Rectangle_36_" x="26" y="74.8" class="st1" width="4" height="4"/>
					<rect id="Rectangle_37_" x="34" y="74.8" class="st1" width="4" height="4"/>
					<rect id="Rectangle_38_" x="42" y="74.8" class="st1" width="4" height="4"/>
					<rect id="Rectangle_39_" x="50" y="74.8" class="st1" width="4" height="4"/>
					<rect id="Rectangle_40_" x="58" y="74.8" class="st1" width="4" height="4"/>
					<rect id="Rectangle_41_" x="66" y="74.8" class="st1" width="4" height="4"/>
					<rect id="Rectangle_42_" x="26" y="82.7" class="st1" width="4" height="4"/>
					<rect id="Rectangle_43_" x="34" y="82.7" class="st1" width="4" height="4"/>
					<rect id="Rectangle_44_" x="42" y="82.7" class="st1" width="4" height="4"/>
					<rect id="Rectangle_45_" x="50" y="82.7" class="st1" width="4" height="4"/>
					<rect id="Rectangle_46_" x="26" y="90.7" class="st1" width="4" height="4"/>
					<rect id="Rectangle_47_" x="34" y="90.7" class="st1" width="4" height="4"/>
					<rect id="Rectangle_48_" x="42" y="90.7" class="st1" width="4" height="4"/>
					<rect id="Rectangle_49_" x="50" y="90.7" class="st1" width="4" height="4"/>
					<rect id="Rectangle_50_" x="26" y="98.7" class="st1" width="4" height="4"/>
					<rect id="Rectangle_51_" x="34" y="98.7" class="st1" width="4" height="4"/>
					<rect id="Rectangle_52_" x="42" y="98.7" class="st1" width="4" height="4"/>
					<rect id="Rectangle_53_" x="50" y="98.7" class="st1" width="4" height="4"/>
					<rect id="Rectangle_54_" x="114" y="86.7" class="st1" width="3" height="3"/>
					<rect id="Rectangle_55_" x="114" y="92.7" class="st1" width="3" height="3"/>
					<rect id="Rectangle_56_" x="114" y="98.7" class="st1" width="3" height="3"/>
					<rect id="Rectangle_57_" x="122" y="98.7" class="st1" width="3" height="3"/>
					<rect id="Rectangle_58_" x="122" y="92.7" class="st1" width="3" height="3"/>
					<rect id="Rectangle_59_" x="129" y="92.7" class="st1" width="3" height="3"/>
					<rect id="Rectangle_60_" x="129" y="98.7" class="st1" width="3" height="3"/>
					<polygon id="Triangle" class="st1" points="102.5,73.8 108,80.7 97,80.7 					"/>
					<rect id="Rectangle_61_" x="79" y="92.7" class="st1" width="3" height="3"/>
					<path id="Path-147" class="st0" d="M97,103.7h11V93.1c-0.5-2.9-2.3-4.4-5.5-4.4c-4.7,0-5.5,3.1-5.5,4.4
						C97,93.9,97,97.4,97,103.7z"/>
					<polyline id="Path-148" class="st0" points="137,30.9 137,20.6 140.6,15.9 149.1,24.8 					"/>
					<polyline id="Path-148-Copy" class="st0" points="170.7,30.9 170.7,20.6 167.1,15.9 157.9,24.6 					"/>
					<polyline id="Path-150" class="st0" points="152,23.9 152,16 152,5.9 148.9,0.5 144.9,10.6 					"/>
					<path id="Path-151" class="st0" d="M141.2,16.7c0.4,0,1.7-2.2,3.9-6.6l7.2,6.2"/>
					<polyline id="Path-150_1_" class="st0" points="155.9,23.9 155.9,16 155.9,5.9 159,0.5 163,10.6 					"/>
					<path id="Path-151_1_" class="st0" d="M166.7,16.3c-0.4,0-1.7-2-3.8-6.1l-6.9,6.1"/>
					<path id="Path-154" class="st0" d="M151,9.5h4"/>
					<g id="Group-4" transform="translate(2.000000, 115.615894)">
						<g id="Group-3">
							<path id="Path-155" class="st0" d="M0.3,33c3.2-19.3,13.8-29,32-29s28.3,9.7,30.3,29"/>
							<polyline id="Path-156" class="st0" points="3.5,21.8 3.5,8.6 10.3,2.6 10.3,11.7 							"/>
							<polyline id="Path-156-Copy" class="st0" points="60.5,22.8 60.5,9.3 53.8,3.2 53.8,11.9 							"/>
							<path id="Path-157" class="st0" d="M17.5,0.9v5.8"/>
							<path id="Path-158" class="st0" d="M24,0.6v4.1"/>
							<path id="Path-159" class="st0" d="M30.9,0.5v3.2"/>
							<path id="Path-160" class="st0" d="M37.9,0.5v3.7"/>
							<path id="Path-161" class="st0" d="M44.4,0.9v4.4"/>
						</g>
						<g id="Group-3_1_" transform="translate(68.000000, 0.000000)">
							<path id="Path-155_1_" class="st0" d="M0.3,33c3.2-19.3,13.8-29,32-29s28.3,9.7,30.3,29"/>
							<polyline id="Path-156_1_" class="st0" points="3.5,21.8 3.5,8.6 10.3,2.6 10.3,11.7 							"/>
							<polyline id="Path-156-Copy_1_" class="st0" points="60.5,22.8 60.5,9.3 53.8,3.2 53.8,11.9 							"/>
							<path id="Path-157_1_" class="st0" d="M17.5,0.9v5.8"/>
							<path id="Path-158_1_" class="st0" d="M24,0.6v4.1"/>
							<path id="Path-159_1_" class="st0" d="M30.9,0.5v3.2"/>
							<path id="Path-160_1_" class="st0" d="M37.9,0.5v3.7"/>
							<path id="Path-161_1_" class="st0" d="M44.4,0.9v4.4"/>
						</g>
						<g id="Group-3_2_" transform="translate(135.000000, 0.000000)">
							<path id="Path-155_2_" class="st0" d="M0.3,33c3.2-19.3,13.8-29,32-29s28.3,9.7,30.3,29"/>
							<polyline id="Path-156_2_" class="st0" points="3.5,21.8 3.5,8.6 10.3,2.6 10.3,11.7 							"/>
							<polyline id="Path-156-Copy_2_" class="st0" points="60.5,22.8 60.5,9.3 53.8,3.2 53.8,11.9 							"/>
							<path id="Path-157_2_" class="st0" d="M17.5,0.9v5.8"/>
							<path id="Path-158_2_" class="st0" d="M24,0.6v4.1"/>
							<path id="Path-159_2_" class="st0" d="M30.9,0.5v3.2"/>
							<path id="Path-160_2_" class="st0" d="M37.9,0.5v3.7"/>
							<path id="Path-161_2_" class="st0" d="M44.4,0.9v4.4"/>
						</g>
					</g>
					<path id="Path-162" class="st0" d="M1,160.4c6.5,0.2,10.6-1.5,12.5-5.2c1.7,3.4,5,5.2,9.9,5.2s8.7-1.7,11.4-5.2
						c2.7,3.5,6.4,5.2,11.1,5.2s7.9-1.7,9.8-5.2c2.3,3.5,5.9,5.2,10.7,5.2s8.3-1.7,10.4-5.2c2.2,3.5,5.9,5.2,11.1,5.2
						c5.2,0,8.7-1.7,10.5-5.2c1.9,3.5,5.3,5.2,10.3,5.2s8.8-1.7,11.5-5.2c2.5,3.5,6.1,5.2,10.7,5.2c4.7,0,8.4-1.7,11.1-5.2
						c2.3,3.5,6,5.2,11.1,5.2c5.1,0,8.6-1.7,10.6-5.2c1.9,3.5,5.4,5.2,10.5,5.2c5.1,0,8.5-1.7,10-5.2c2.4,3.5,6.3,5.2,11.7,5.2"/>
				</g>
			</g>
		</g>
	</g>
</g>
</svg>
