<?xml version="1.0" encoding="utf-8"?>
<!-- Generator: Adobe Illustrator 21.0.0, SVG Export Plug-In . SVG Version: 6.00 Build 0)  -->
<svg version="1.1" id="Layer_1" xmlns="http://www.w3.org/2000/svg" xmlns:xlink="http://www.w3.org/1999/xlink" x="0px" y="0px"
	 viewBox="0 0 212 164" style="enable-background:new 0 0 212 164;" xml:space="preserve">
<style type="text/css">
	.st0{fill:none;stroke:#FFFFFF;stroke-width:2;}
	.st1{fill:#FFFFFF;}
</style>
<title>New York</title>
<desc>Created with Sketch.</desc>
<g id="Mayven-2.0">
	<g id="Contact-Us" transform="translate(-969.000000, -345.000000)">
		<g id="Cities">
			<g id="New-York" transform="translate(925.000000, 346.000000)">
				<g transform="translate(45.000000, 0.000000)">
					<polyline id="Path-141" class="st0" points="0,151 0,64.3 9,64.3 9,151 					"/>
					<polyline id="Path-141_1_" class="st0" points="31,151 31,64.3 40,64.3 40,151 					"/>
					<path id="Path-142" class="st0" d="M17.5,150V40.4"/>
					<path id="Path-142_1_" class="st0" d="M23.5,150V40.4"/>
					<polyline id="Path-144" class="st0" points="4,63.3 4,40.4 37,40.4 37,63.3 					"/>
					<path id="Path-149" class="st0" d="M10.5,41.4v14.9"/>
					<path id="Path-152" class="st0" d="M30.5,41.4v14.9"/>
					<polyline id="Path-153" class="st0" points="12,40.4 12,31.4 30,31.4 30,40.4 					"/>
					<path id="Path-163" class="st0" d="M15.1,31.3c2.6-3.2,3.9-8.1,3.9-14.8"/>
					<path id="Path-163_1_" class="st0" d="M26.1,31.2c-2.7-3.1-4.1-8-4.1-14.7"/>
					<path id="Path-164" class="st0" d="M20.5,11.5v6"/>
					<polyline id="Path-165" class="st0" points="119,151 119,82.2 187,82.2 187,151 					"/>
					<path id="Path-166" class="st0" d="M119,92.7h67"/>
					<path id="Path-167" class="st0" d="M112.5,151V96.2"/>
					<path id="Path-168" class="st0" d="M106.5,151v-45.6"/>
					<path id="Path-169" class="st0" d="M100.5,151v-37.2"/>
					<path id="Path-167_1_" class="st0" d="M192.5,151V96.1"/>
					<path id="Path-168_1_" class="st0" d="M198.5,151v-46.4"/>
					<path id="Path-169_1_" class="st0" d="M204.5,151v-39.1"/>
					<path id="Path-170" class="st0" d="M118.9,85.9c-10.2,17.5-18.5,29.3-24.9,35.2"/>
					<path id="Path-171" class="st0" d="M186.9,86.6c5.9,10.9,13.5,21.2,23,31"/>
					<polyline id="Path-172" class="st0" points="192,75.3 181.2,75.3 181.2,45.2 159.6,45.2 153.5,50.7 153.5,62.1 144.6,62.1 
						143.8,18.5 125.8,18.5 117.8,24.6 117.8,50.7 104.5,50.7 104.5,32.7 83.4,32.7 83.4,38 76,38 					"/>
					<rect id="Rectangle-4" x="90" y="40.4" class="st1" width="3" height="3"/>
					<rect id="Rectangle-4_1_" x="97" y="55.3" class="st1" width="3" height="3"/>
					<rect id="Rectangle-4_2_" x="108" y="68.3" class="st1" width="3" height="3"/>
					<rect id="Rectangle-4_3_" x="125" y="67.3" class="st1" width="3" height="3"/>
					<rect id="Rectangle-4_4_" x="131" y="55.3" class="st1" width="3" height="3"/>
					<rect id="Rectangle-4_5_" x="131" y="40.4" class="st1" width="3" height="3"/>
					<rect id="Rectangle-4_6_" x="131" y="29.4" class="st1" width="3" height="3"/>
					<rect id="Rectangle-4_7_" x="138" y="49.4" class="st1" width="3" height="3"/>
					<rect id="Rectangle-4_8_" x="168" y="49.4" class="st1" width="3" height="3"/>
					<rect id="Rectangle-4_9_" x="168" y="61.3" class="st1" width="3" height="3"/>
					<rect id="Rectangle-4_10_" x="168" y="75.3" class="st1" width="3" height="3"/>
					<rect id="Rectangle-4_11_" x="174" y="70.3" class="st1" width="3" height="3"/>
					<path id="Path-174" class="st0" d="M140,98.2c-5.3,4.6-8,9.5-8,14.7c0,5.2,0,17.9,0,38.1"/>
					<path id="Path-174_1_" class="st0" d="M138.7,98.2c5.5,4.6,8.3,9.5,8.3,14.7c0,5.2,0,17.9,0,38.1"/>
					<path id="Path-174_2_" class="st0" d="M167,98.2c-5.3,4.6-8,9.5-8,14.7c0,5.2,0,17.9,0,38.1"/>
					<path id="Path-174_3_" class="st0" d="M165.7,98.2c5.5,4.6,8.3,9.5,8.3,14.7c0,5.2,0,17.9,0,38.1"/>
					<path id="Path-175" class="st0" d="M65.6,152c-2.9-16.2-4.4-27.2-4.4-33c0-8.6,4.4-18,4.4-24.8c0-4.5-2.5-12.1-7.6-22.6
						l9.7-7.7c3.8,7.1,6.2,10.7,7.1,10.7"/>
					<path id="Path-176" class="st0" d="M64,147l-13,5"/>
					<path id="Path-177" class="st0" d="M62.3,132.2c0.4-4.2,6.7-13.1,19-26.9"/>
					<path id="Path-178" class="st0" d="M66,94.2l14.5-7.1"/>
					<path id="Path-179" class="st0" d="M94.6,151c0,0,1.9-31.6-2.6-44.8"/>
					<polygon id="Path-180" class="st0" points="98.4,107.2 79,104.9 81.3,81.3 101,83.9 100.5,88.8 98.7,104.3 					"/>
					<path id="Path-181" class="st0" d="M101,91.2c1.7,0,2.8,0.5,3.2,1.4c0.7,1.4,1.1,7.4-0.5,8.5c-1.1,0.7-2.4,1.1-4.1,1"/>
					<path id="Path-182" class="st0" d="M91,82.2l-7-6"/>
					<path id="Path-183" class="st0" d="M75.5,71v7.2"/>
					<path id="Path-184" class="st0" d="M81.5,72.3v6"/>
					<path id="Path-185" class="st0" d="M74,61.3c-0.3,7.9,1.5,11.9,5.5,11.9"/>
					<path id="Path-186" class="st0" d="M84,61.3c0.3,7.5-1.4,11.5-5,12"/>
					<path id="Path-187" class="st0" d="M78.9,57.3c-0.1,3.1-2.1,4.7-5.9,5"/>
					<path id="Path-188" class="st0" d="M78.9,57.9c0.7,2.6,2.5,4,5.4,4.4"/>
					<path id="Path-189" class="st0" d="M85.9,61.3c0,0.4,4.8,11.3-0.9,15.2"/>
					<path id="Path-190" class="st0" d="M91.2,60.3c-0.3,0-2.3,0-6.2,0C89.4,60.3,91.5,60.3,91.2,60.3z"/>
					<path id="Path-191" class="st0" d="M71.2,60.3L66,59.8"/>
					<path id="Path-192" class="st0" d="M72,56l-5-1.3"/>
					<path id="Path-193" class="st0" d="M90,54.7L85,56"/>
					<path id="Path-194" class="st0" d="M87,49.4l-4,4"/>
					<path id="Path-195" class="st0" d="M71,49.4l4,4"/>
					<path id="Path-196" class="st0" d="M78.5,46.4v4"/>
					<path id="Path-197" class="st0" d="M86,60.3c0.6-5.6-1.8-8.9-7-10"/>
					<path id="Path-198" class="st0" d="M79,50.4c-5,1-7.4,4.7-7,11"/>
					<path id="Path-199" class="st0" d="M86,59.3c-2.1-3-4.4-4.5-6.9-4.5c-3.8,0-4.3,1.3-6.9,4.5"/>
					<path id="Path-200" class="st0" d="M82.1,52l-1.7,3"/>
					<path id="Path-201" class="st0" d="M76.1,51.9l1.3,2.6"/>
					<path id="Path-204" class="st0" d="M59.5,69.7c-3.7-3.6-5.6-7.4-5.6-11.3s0.3-9.6,0.8-17"/>
					<path id="Path-205" class="st0" d="M64.6,65.3c-2.6-4.4-3.9-7.4-3.9-9.1s0-6.6,0-14.8"/>
					<rect id="Rectangle-5" x="50" y="33.4" class="st0" width="15" height="8"/>
					<rect id="Rectangle-6" x="53" y="29.4" class="st0" width="9" height="4"/>
					<path id="Path-206" class="st0" d="M54.2,29.4c0,0,2.6-3.9-1.3-6.4s4.1-2.5,4.6-10.6c0.4-6,4.4,2.7,5,10.6
						c0.2,2.6-1.4,5.3-2.2,6.4"/>
					<path id="Path-2" class="st0" d="M99.9,92.9c-1.9,0-3.1,0.6-3.6,1.6c-0.7,1.5-1.2,5.6,0.6,6.6c1.2,0.7,2.2,1,3,1"/>
				</g>
			</g>
		</g>
	</g>
</g>
</svg>
