<svg xmlns="http://www.w3.org/2000/svg" xmlns:xlink="http://www.w3.org/1999/xlink" width="386.23" height="64" viewBox="0 0 386.23 64"><defs><path id="hw23a" d="M914 341h-13.14v42.2L875.14 341h-13.19v64h13.2v-42.11L900.81 405H914zm-71.1 25.93h-25.32v-15.25h29.63V341h-42.82v64h42.9v-10.6h-29.71v-17.14h25.32zM747.84 341H733.2l22.2 64h13.77l22.29-64h-14.69l-14.5 48.13zm-63.76 0h-14.46l21.01 40.8V405h13.4v-23.2l21.02-40.8h-14.42l-13.32 28.84zm-45.2 16.18l8.03 23.94h-16zM654.9 405h14.03l-23.96-64h-12.22l-23.82 64h14.02l4.4-13.19h23.11zm-127.14-64v64h13.19v-17.5l-1.32-30.15L556.87 405h9.05l17.28-47.7-1.32 30.2V405h13.23v-64H577.8l-16.35 46.42L545 341z"/></defs><g><g transform="translate(-527.77 -341)"><use fill="#fff" xlink:href="#hw23a"/></g></g></svg>