<svg xmlns="http://www.w3.org/2000/svg" xmlns:xlink="http://www.w3.org/1999/xlink" width="111.55" height="18.48" viewBox="0 0 111.55 18.48"><defs><path id="gce5a" d="M211.55 96h-3.8v12.19L200.33 96h-3.81v18.48h3.8v-12.16l7.42 12.16h3.81zm-20.54 7.49h-7.3v-4.4h8.55V96h-12.37v18.48h12.4v-3.06h-8.59v-4.95h7.31zM163.56 96h-4.23l6.41 18.48h3.98L176.15 96h-4.24l-4.19 13.9zm-18.41 0h-4.18l6.07 11.78v6.7h3.87v-6.7L156.98 96h-4.17l-3.84 8.33zm-13.06 4.67l2.32 6.92h-4.62zm4.63 13.81h4.05L133.85 96h-3.53l-6.88 18.48h4.05l1.27-3.8h6.68zM100 96v18.48h3.8v-5.05l-.37-8.7 4.97 13.75h2.62l4.99-13.77-.38 8.72v5.05h3.82V96h-5l-4.73 13.4-4.74-13.4z"/></defs><g><g transform="translate(-100 -96)"><use fill="#fff" xlink:href="#gce5a"/></g></g></svg>