<svg xmlns="http://www.w3.org/2000/svg" xmlns:xlink="http://www.w3.org/1999/xlink" width="1440" height="586.82" viewBox="0 0 1440 586.82"><defs><path id="jicha" d="M-2 764.1V201.86h1444V764.1zm2-2.14h1440v-366.2l-40.95-50.28-32.75-25.8-31.85 25.8h-41.4l-37 20.38-68.47-41.97-43.2 10.51-42.31 31.46-61.51-41.97-48.57 10.51-57.57-48.56-43.18-21.9-27 16.88h-31.26l-31.02 17.66-52.7-50.78-46.07-20.46-27.13 11.1-15.86 19.8-44.53 14.25-35.49 26.09-47.19 21.2-30.38-21.2-42.45-30.53-34.45 4.44-39.22-24.7-47.95-20.45-39.99 15.57-22.1 10.9-15.4 10.22-47.22-43.15L175.1 204l-33.57 23.24-25.59 20.46H92.17l-44.59 50.78L0 334.4z"/><path id="jichb" d="M-2 782.3V341.06h1444V782.3zm2-2.03h1440v-326l-25.48-19.73-30.27 12.7-42.23-5.48-28.75 12.5-57.54 6.43-64.6-18.93-48.74-13.89-51.7 19.37-18.97 22.92-18.24 5.85-34.3-15.32-53.54-26.15-75.7-33.43-36.55-25.29-33.68-5.57-26.75 10.99h-19.48L724.9 347.8l-27.26-4.7-20.93 10.37-51.67 4.75-45.15 12.03-59.95-16.78-27.74 4.75-34.82 17.6-55.57 34.16-16.56 7.34-98.9-11.58-23.67-13.42-29.08-11.08-48.24 24.5-51.36-24.5-82.16-5.42L0 392.32z"/><path id="jichc" d="M514.74 703.46V447.79h404.5v255.67zm101.13-2.21c7.26 0 145.39-10.64 145.39-10.64l154.92-35.65-46.49-71.46-71.82-52.23-43.54-57.9L709.49 450l-25.73 23.36-28.87 36.92-45.28 12.18-91.82 71.82s90.82 106.97 98.08 106.97z"/><path id="jichd" d="M-2 769.36V338.72h1444v430.64zm2-2.4h1440V529.46l-37.6-15.14-27.84-43.47-53.73-59.24-36.76 10.15-25.25-10.15-24.79 5.18-16.74 18.25-43.59 50.3-21.18-5.2-25.82-4.94-39.61 4.5-33.2-27.32-22.34-40.77-27.7-20.02-61.68 51.96-64 36.58-48.44 49.33-18.3 56.06-42.3-9.05L720 604.64l-22.87-28.16-48.02-22.44-83.22-39.71-23.6-61.94-36.6-48.96-33.33-11.83-40.41-50.47-23.32 19.02-27.48 6.61-26.92 24.84H329.5l-16.84 43.45-31.88 25.69-28.65 42.25h-49.19l-42.83-32.13-45.7 9.28L75.57 503l-35.12-50.6L0 443.56z"/><path id="jiche" d="M675.16 793V567.07h570.61v225.91zm566.35-2.18l-55.59-86.1 46.44-50.65-64.6-42.7-98.64-42.12-39.98 25.22-29.29 30.89-28.52 11.34-52.44-25.32-21.45 13.98-30.93 28.71-42.29-17.37L774 670l-56.74 34.72v34.65l-37.84 36.91z"/><path id="jichf" d="M56.16 764.23V552h824.98v212.23zm814.15-2l-68.46-25.99-74.28-45.8-64.96-45.69h-73.95l-47.26-22.34-29.08-26.13-28.65 9.55-39.34-38.65S417.3 554 415.42 554c-1.9 0-24.3 13.18-24.3 13.18l-22.2 15.09-26.45 53.39-61.77 54.79-37.83 34.6h-79.34l-96.54 37.18z"/><path id="jichg" d="M911.38 776.89V559.22h533.1V776.9zM1440 608.59l-45.79-24.52h-48.36l-41.02-22.62s-41.36 38.64-46.61 38.64c-5.26 0-41.3 31-41.3 31l-52.28 17.87-33.85-5.42-17.3-12.45-38.3 17.87-52.43 58.88-106.89 66.82H1440z"/><path id="jichh" d="M-5.32 764.05V529.1h666.44v234.96zM0 761.97h655.8l-96.23-47.04h-49.28l-53.1-36.13-41.54 22.87-40.5-27.2-57.1-37.65L271.22 584l-32.27-37.54-27.65-15.28-28.97 10.5-57.7 50.42-76.87 22.4L0 674.48z"/><path id="jichi" d="M0 334.4l47.58-35.92 44.6-50.78h23.75l25.6-20.46L175.08 204l38.74 16.78 47.22 43.15 15.4-10.22 22.1-10.9 40-15.57 47.94 20.46 39.22 24.7 34.45-4.45 42.45 30.53 30.38 21.2 47.19-21.2 35.5-26.09 44.52-14.24 15.86-19.8 27.13-11.1 46.07 20.45 52.7 50.78 31.02-17.66h31.27l27-16.89 43.17 21.91L992 334.4l48.57-10.51 61.5 41.97 42.33-31.46 43.19-10.51 68.47 41.97 37-20.38h41.4l31.85-25.8 32.75 25.8 40.95 50.28v366.2H0z"/><path id="jichk" d="M0 392.32l51.83-16.5 82.16 5.42 51.36 24.5 48.24-24.5 29.08 11.08 23.66 13.42 98.9 11.58 16.57-7.34 55.57-34.16 34.82-17.6 27.74-4.75 59.95 16.78 45.15-12.03 51.67-4.75 20.93-10.37 27.26 4.7 48.6 33.44h19.47l26.75-11 33.68 5.58 36.55 25.3 75.7 33.42 53.54 26.15 34.3 15.32 18.24-5.85 18.96-22.92 51.71-19.37 48.74 13.9 64.6 18.92 57.54-6.42 28.75-12.5 42.23 5.47 30.27-12.7 25.48 19.73v326H0z"/><path id="jichm" d="M517.79 594.28l91.82-71.82 45.28-12.18 28.87-36.92L709.49 450l44.84 23.36 43.54 57.9 71.82 52.24 46.5 71.46-154.93 35.65s-138.13 10.64-145.39 10.64c-7.26 0-98.08-106.97-98.08-106.97z"/><path id="jicho" d="M0 443.56l40.45 8.83L75.57 503l38.84-22.85 45.7-9.28L202.94 503h49.19l28.65-42.25 31.88-25.7 16.84-43.44h24.73l26.92-24.84 27.48-6.6 23.32-19.03 40.4 50.47 33.34 11.83 36.6 48.96 23.6 61.94 83.22 39.71 48.02 22.44L720 604.64l49.13-28.16 42.3 9.05 18.3-56.06 48.43-49.33 64.01-36.58 61.68-51.96 27.7 20.02 22.34 40.77 33.2 27.32 39.61-4.5 25.82 4.93 21.18 5.22 43.6-50.31 16.73-18.25 24.79-5.18 25.25 10.15 36.76-10.15 53.73 59.24 27.83 43.47 37.61 15.14v237.48H0z"/><path id="jichq" d="M1241.51 790.82l-55.59-86.1 46.44-50.65-64.6-42.7-98.64-42.12-39.98 25.22-29.29 30.89-28.52 11.34-52.44-25.32-21.45 13.98-30.93 28.71-42.29-17.37L774 670l-56.74 34.72v34.65l-37.84 36.91z"/><path id="jichs" d="M66.99 762.23l96.54-37.18h79.34l37.83-34.6 61.77-54.79 26.45-53.4 22.2-15.08s22.4-13.18 24.3-13.18c1.89 0 28.9 13.18 28.9 13.18l39.35 38.65 28.65-9.55 29.08 26.13 47.26 22.34h73.95l64.96 45.7 74.28 45.8 68.46 25.98z"/><path id="jichu" d="M1440 608.6l-45.79-24.53h-48.36l-41.02-22.62s-41.36 38.64-46.61 38.64c-5.26 0-41.3 31-41.3 31l-52.28 17.87-33.85-5.42-17.3-12.45-38.3 17.87-52.43 58.88-106.89 66.82H1440z"/><path id="jichw" d="M0 674.48l47.76-59.98 76.86-22.4 57.7-50.42 28.98-10.5 27.65 15.28L271.22 584l46.83 52.82 57.1 37.66 40.5 27.19 41.55-22.87 53.1 36.13h49.27l96.23 47.04H0z"/><path id="jichy" d="M0 763v-1h100v1z"/><clipPath id="jichj"><use fill="#fff" xlink:href="#jicha"/></clipPath><clipPath id="jichl"><use fill="#fff" xlink:href="#jichb"/></clipPath><clipPath id="jichn"><use fill="#fff" xlink:href="#jichc"/></clipPath><clipPath id="jichp"><use fill="#fff" xlink:href="#jichd"/></clipPath><clipPath id="jichr"><use fill="#fff" xlink:href="#jiche"/></clipPath><clipPath id="jicht"><use fill="#fff" xlink:href="#jichf"/></clipPath><clipPath id="jichv"><use fill="#fff" xlink:href="#jichg"/></clipPath><clipPath id="jichx"><use fill="#fff" xlink:href="#jichh"/></clipPath></defs><g><g transform="translate(0 -204)"><use fill="#2a4350" xlink:href="#jichi"/><use fill="#fff" fill-opacity="0" stroke="#354d58" stroke-miterlimit="50" stroke-width="4" clip-path="url(&quot;#jichj&quot;)" xlink:href="#jichi"/></g><g transform="translate(0 -204)"><use fill="#263f4e" xlink:href="#jichk"/><use fill="#fff" fill-opacity="0" stroke="#354d58" stroke-miterlimit="50" stroke-width="4" clip-path="url(&quot;#jichl&quot;)" xlink:href="#jichk"/></g><g transform="translate(0 -204)"><use fill="#233b4a" xlink:href="#jichm"/><use fill="#fff" fill-opacity="0" stroke="#354d58" stroke-miterlimit="50" stroke-width="4" clip-path="url(&quot;#jichn&quot;)" xlink:href="#jichm"/></g><g transform="translate(0 -204)"><use fill="#1f3947" xlink:href="#jicho"/><use fill="#fff" fill-opacity="0" stroke="#354d58" stroke-miterlimit="50" stroke-width="4" clip-path="url(&quot;#jichp&quot;)" xlink:href="#jicho"/></g><g transform="translate(0 -204)"><use fill="#1f3541" xlink:href="#jichq"/><use fill="#fff" fill-opacity="0" stroke="#354d58" stroke-miterlimit="50" stroke-width="4" clip-path="url(&quot;#jichr&quot;)" xlink:href="#jichq"/></g><g transform="translate(0 -204)"><use fill="#1f3541" xlink:href="#jichs"/><use fill="#fff" fill-opacity="0" stroke="#354d58" stroke-miterlimit="50" stroke-width="4" clip-path="url(&quot;#jicht&quot;)" xlink:href="#jichs"/></g><g transform="translate(0 -204)"><use fill="#1f313b" xlink:href="#jichu"/><use fill="#fff" fill-opacity="0" stroke="#354d58" stroke-miterlimit="50" stroke-width="4" clip-path="url(&quot;#jichv&quot;)" xlink:href="#jichu"/></g><g transform="translate(0 -204)"><use fill="#1f313b" xlink:href="#jichw"/><use fill="#fff" fill-opacity="0" stroke="#354d58" stroke-miterlimit="50" stroke-width="4" clip-path="url(&quot;#jichx&quot;)" xlink:href="#jichw"/></g><g opacity=".1" transform="translate(0 -204)"><use fill="#fff" xlink:href="#jichy"/></g></g></svg>